<?xml version="1.0" encoding="utf-8"?>
<!-- Generator: Adobe Adobe Illustrator 24.2.0, SVG Export Plug-In . SVG Version: 6.00 Build 0)  -->
<svg version="1.1" id="Layer_1" xmlns="http://www.w3.org/2000/svg" xmlns:xlink="http://www.w3.org/1999/xlink" x="0px" y="0px"
	 width="1000.99px" height="448.64px" viewBox="0 0 1000.99 448.64" style="enable-background:new 0 0 1000.99 448.64;"
	 xml:space="preserve">
<g>
	<path d="M246.45,432.06c-18.06,0.72-34.19,1.55-50.29,1.12c-21.65-0.57-26.27-5.69-27.05-27.86c-0.28-7.91-0.04-15.83-0.04-25.13
		c-8.21-0.73-14.41-1.74-20.61-1.77c-38.71-0.15-77.43,0.03-116.14-0.17c-8.63-0.04-17.26-1.16-23.75-1.63
		c-3.07-3.45-4.93-4.56-5.07-5.85c-4.01-36.66-8.3-73.09,10.22-107.96c19.98-37.61,38.5-75.97,57.81-113.93
		c2.84-5.59,6.5-10.77,10.5-17.34c29.13,11.41,57.33,22.46,86.95,34.06c-20.72,40.65-40.33,79.11-61.05,119.74
		c20.57,0,38.59,0,59.48,0c0.53-8.94,1.03-17.41,1.53-25.88c1.22-20.69,5.87-25.75,25.99-26.53c13.69-0.53,27.43-0.5,41.13-0.04
		c19.38,0.65,24.33,5.59,25.09,24.33c0.35,8.69,0.06,17.4,0.06,26.67c6.59,1.33,11.26,2.04,15.78,3.26
		c4.56,1.22,8.98,2.95,15.3,5.08c5.29,26.78,2.8,53.47,1.33,82.21c-10.87,2.29-19.98,4.21-31.84,6.71
		c-0.22,9.37-0.59,19.53-0.64,29.68C261.09,420.4,258.66,428.33,246.45,432.06z"/>
	<path d="M746.27,220.32c13.45-26.36,26.04-51.11,40.52-79.59c22.85,29.18,42.95,54.84,64.23,82.01
		c-12.22,24.79-24.44,49.59-37.28,75.64c20.32,0,38.63,0,58.36,0c0.98-12.48,1.9-24.18,2.86-36.32
		c14.86,8.44,72.32,79.2,103.6,127.21c-3.23,1.81-6.37,3.58-11.41,6.41c0,8.45,0.46,18-0.1,27.5c-0.95,16.13-5.98,20.1-22.48,21.96
		c-24.56,2.77-69.91,0.88-69.91,0.88s-0.85-39.48-2.29-52.66c-18.28-0.62-36.59-2.52-54.74-1.55c-26.43,1.42-97.55-6.29-109.63-11.1
		c-5.31-32.52,0.85-76.7,12.06-109.52C726,253.74,737.02,238.38,746.27,220.32z"/>
	<path d="M560.67,135.04c-12.81-16.8-28.83-17.4-44.7-11.47c-15.66,5.85-19.39,20.4-19.48,35.69c-0.19,32.14-0.14,64.28-0.18,96.42
		c-0.01,7.81,0,15.62,0,27.45c-19.29-7.43-34.82-13.25-50.22-19.4c-14.91-5.96-29.68-12.26-46.36-19.18
		c-0.44-38.32-5.26-77.04,2.59-114.76c10.22-49.18,42.28-81.13,91.27-92.49c55.53-12.87,105.86-3.22,144.1,43.41
		c1.99,2.42,3.34,5.37,5.67,9.2c-23.28,53.02-46.65,106.24-70.03,159.47c-1.75-0.38-3.5-0.75-5.25-1.13c0-25.54,0.65-51.1-0.29-76.6
		C567.36,159.9,563.83,148.25,560.67,135.04z"/>
	<path d="M691.71,275.46c-0.12,21.49-0.25,40.57-0.4,63.68c-34.63-11.74-65.08-23.02-95.95-35.41c-2.75-25.44-3.48-49.36,7.72-73.25
		c20.44-43.61,39.08-88.06,58.54-132.13c2.19-4.95,4.82-9.71,8.31-16.68c16.52,19.85,21.16,41.28,21.48,63.68
		C692.01,187.9,691.66,230.48,691.71,275.46z"/>
	<path d="M463.63,439.37c-8.41-0.19-16.61-0.28-23.14-3.61c-42.17-21.51-64.66-56.8-67.92-103.37c-1.84-26.29-0.57-52.8-0.48-79.21
		c0.01-2.06,1.78-4.11,3.9-8.66c30.53,12.28,60.74,24.44,93.1,37.46c0,9.09,0.36,17.73-0.07,26.33
		c-1.19,23.75,2.62,45.02,28.33,56.19C486.07,389.79,475.34,413.88,463.63,439.37z"/>
	<path d="M852.26,0.55c21.34-0.35,40.64-0.87,59.89-0.28c8.3,0.25,16.52,2.79,25.8,4.47c-0.63,7.22,0.28,12.43-1.63,16.23
		c-27.65,54.96-55.67,109.73-85.07,167.42c-13.83-12.94-22.72-26.92-32.97-39.58c-10.57-13.06-20.57-26.58-32.08-41.54
		c16.14-31.74,32.07-63.9,49-95.51C837.84,6.85,845.09,4.41,852.26,0.55z"/>
	<path d="M659.34,345.4c-7.85,58.9-53.74,99.37-116.02,103.03c-17.32,1.02-34.88-1.95-56.01-3.32
		c10.35-30.37,23.08-55.69,34.35-80.82c37.56-5.97,41.16-9.65,49.4-51.52C601.06,321.01,629.65,332.51,659.34,345.4z"/>
	<path d="M254.7,35.31c12.8,0.5,23.24,0.77,33.62,1.65c2.96,0.25,5.77,2.31,10.07,4.15c0,4.62,1.57,9.94-0.24,13.59
		c-20.62,41.48-41.76,82.7-63.46,125.38c-30.01-11.7-58.06-22.64-88.37-34.46c17.45-34.27,33.7-66.2,49.96-98.13
		c4.64-9.12,13.27-11.29,22.27-11.78C229.78,35.1,241.06,35.4,254.7,35.31z"/>
	<path d="M1000.94,304.53c-0.04,11.98-0.02,21.6-0.14,31.21c-0.13,10.74-4.31,18.49-15.38,20.94
		c-14.96-10.27-98.44-116.33-108.89-139.07c5.83-2.12,11.4-5.7,17.13-5.95c17.66-0.77,35.4-0.82,53.06-0.1
		c13.46,0.55,18.84,5.91,19.96,19.21c0.86,10.25,0.17,20.63,0.17,32.15c9.24,1.3,16.95,2.38,23.87,3.35
		C1004.37,276.02,1000.19,289.75,1000.94,304.53z"/>
</g>
</svg>
