<?xml version="1.0" encoding="utf-8"?>
<!-- Generator: Adobe Illustrator 26.2.1, SVG Export Plug-In . SVG Version: 6.00 Build 0)  -->
<svg version="1.1" id="Layer_1" xmlns="http://www.w3.org/2000/svg" xmlns:xlink="http://www.w3.org/1999/xlink" x="0px" y="0px"
	 viewBox="770 0 2500 2500" style="enable-background:new 0 0 4038.4 2993.8;" xml:space="preserve">
<style type="text/css">
	.st0{fill:#FBBC04;}
	.st1{fill:#34A853;}
	.st2{fill:#3B80EF;}
	.st3{fill:#757575;}
	.st4{display:none;fill:#757575;}
	.st5{font-family:'ProductSans-Regular';}
	.st6{font-size:452.3702px;}
</style>
<g>
	<path class="st0" d="M3177.8,1385L2177,2385.8c-91.3,91.3-239.4,91.3-330.7,0c-91.4-91.3-91.3-239.4,0-330.7l1000.9-1000.9
		c91.3-91.3,239.4-91.3,330.7,0C3269.2,1145.6,3269.2,1293.6,3177.8,1385L3177.8,1385z"/>
	
		<ellipse transform="matrix(0.7071 -0.7071 0.7071 0.7071 -980.9337 2072.7847)" class="st1" cx="2011.6" cy="2220.5" rx="233.9" ry="233.9"/>
	<path class="st0" d="M2354.3,561.4l-500.5,500.4l330.7,330.7L2685,892.1c91.3-91.3,91.3-239.4,0-330.7
		C2593.6,470,2445.6,470,2354.3,561.4L2354.3,561.4z"/>
	<path class="st2" d="M1684.1,1893l500.4-500.4l-330.7-330.7l-500.4,500.4c-91.3,91.3-91.3,239.4,0,330.7
		C1444.7,1984.3,1592.8,1984.3,1684.1,1893L1684.1,1893z"/>
	<ellipse class="st1" cx="2020.3" cy="1226.1" rx="233.9" ry="233.9"/>
	<path class="st2" d="M2192.1,399.2L1191.2,1400.1c-91.3,91.3-239.4,91.3-330.7,0s-91.3-239.4,0-330.7L1861.4,68.5
		c91.3-91.3,239.4-91.3,330.7,0S2283.4,307.9,2192.1,399.2L2192.1,399.2z"/>
	<circle class="st1" cx="2026.7" cy="233.9" r="233.9"/>
</g>
<text transform="matrix(1 0 0 1 1642.6853 2889.1077)" class="st4 st5 st6">Ad Manager</text>
</svg>
