<?xml version="1.0" encoding="utf-8"?>
<!-- Generator: Adobe Illustrator 26.3.1, SVG Export Plug-In . SVG Version: 6.00 Build 0)  -->
<svg version="1.1" id="Layer_1" xmlns="http://www.w3.org/2000/svg" xmlns:xlink="http://www.w3.org/1999/xlink" x="0px" y="0px"
	 viewBox="0 0 752 752" style="enable-background:new 0 0 752 752;" xml:space="preserve">
<style type="text/css">
	.st0{fill:#4285F4;}
	.st1{fill:#757575;}
	.st2{fill:#FBBC05;}
	.st3{fill:#EA4335;}
	.st4{fill:#34A853;}
</style>
<g>
	<path class="st0" d="M556.4,295.9c1.4-6.5-0.7-12.9-5-17.2c-34.4-40.9-82.5-68.9-134.9-78.2c-6.5-1.4-12.2,0.7-17.2,5
		c-5,4.3-7.9,10-7.9,16.5v62.4c0,10,6.5,17.9,15.8,20.8c22.2,5.7,42.3,17.2,58.1,33.7c4.3,4.3,9.3,6.5,15.1,6.5
		c3.6,0,7.2-0.7,10.8-2.9l53.8-31.6C551.4,308.1,555.7,302.3,556.4,295.9L556.4,295.9z"/>
	<path class="st1" d="M376,329.6c-3,0-5.6,1.5-6.6,4.6c-9.1,20.3-38.1,87.8-38.1,101c0,24.4,20.3,44.7,44.7,44.7
		s44.7-20.3,44.7-44.7c0-13.2-28.9-80.7-38.1-101C381.6,331.1,379,329.6,376,329.6L376,329.6z M386.7,434.6c0,5.1-4.6,9.6-9.6,9.6
		c-5.1,0-9.6-4.6-9.6-9.6c0-5.1,4.6-9.6,9.6-9.6C382.1,425,386.1,429.1,386.7,434.6z"/>
	<path class="st2" d="M361.2,284.4V222c0-6.5-2.9-12.2-7.9-16.5c-5-4.3-11.5-5.7-17.2-5c-52.4,9.3-100.5,37.3-134.9,78.2
		c-4.3,5-6.5,11.5-5,17.2c1.4,6.5,5,11.5,10.8,15.1l53.8,31.6c3.6,2.2,7.2,2.9,10.8,2.9c5.7,0,10.8-2.2,15.1-6.5
		c15.8-16.5,36.6-28,58.1-33.7C354.8,303,361.2,294.4,361.2,284.4L361.2,284.4z"/>
	<path class="st3" d="M592.3,348.2c-2.2-5.7-6.5-10.8-12.9-12.9c-5.7-2.2-12.9-1.4-17.9,1.4L506.9,369c-8.6,5-12.9,15.1-10,24.4
		c6.5,21.5,6.5,45.2,0,67.4c-2.9,9.3,1.4,19.4,10,24.4l53.8,31.6c5.7,2.9,12.2,3.6,17.9,1.4c5.7-2.2,10.8-7.2,12.9-12.9
		C610.2,454.4,610.2,399.2,592.3,348.2L592.3,348.2z"/>
	<path class="st4" d="M245.7,369l-54.5-31.6c-5.7-2.9-12.2-3.6-17.9-1.4c-5.7,2.2-10.8,7.2-12.9,12.9c-18.7,50.2-18.7,106.2,0,156.4
		c2.2,5.7,7.2,10.8,12.9,12.9c5.7,2.2,12.9,1.4,17.9-1.4l54.5-30.9c8.6-5,12.9-15.1,10-24.4c-6.5-22.2-6.5-45.2,0-67.4
		C257.9,383.4,253.6,373.4,245.7,369L245.7,369z"/>
	<path class="st1" d="M324.7,497.5c-4.3,0-7.2,2.9-7.2,7.2c0,4.3,2.9,7.2,7.2,7.2h104c4.3,0,7.2-2.9,7.2-7.2c0-4.3-2.9-7.2-7.2-7.2
		H324.7z"/>
	<path class="st1" d="M452.4,537.7H300.3c-4.3,0-7.2,2.9-7.2,7.2s2.9,7.2,7.2,7.2h152.1c4.3,0,7.2-2.9,7.2-7.2
		S456,537.7,452.4,537.7z"/>
</g>
</svg>
