<?xml version="1.0" encoding="UTF-8" standalone="no"?>
<svg version="1.1" xmlns="http://www.w3.org/2000/svg" xmlns:xlink="http://www.w3.org/1999/xlink" width="893.44" height="469.12">
	<g id="dp_dp001" transform="matrix(1,0,0,1,-131.933,-476.401)">
		<path id="dp_path003" fill="#3d3d3d" fill-rule="evenodd" stroke="none" stroke-width="0" d="M 345.953,885.929 C 344.665,886.599 343.409,886.984 340.848,887.781 C 342.38,887.703 344.169,887.719 345.953,887.837 Z M 348.523,884.143 C 348.509,884.207 348.497,884.272 348.484,884.337 C 348.26,884.492 348.051,884.637 347.851,884.772 L 348.523,884.772 Z M 373.799,877.567 L 363.713,877.539 L 363.713,884.772 L 373.873,884.772 L 373.873,877.713 L 373.871,877.716 Z M 368.811,867.176 L 365.859,873.325 L 371.771,873.341 Z M 373.873,856.631 L 370.688,863.264 L 373.873,869.897 Z M 363.713,856.559 L 363.713,869.969 L 366.932,863.264 Z M 365.355,852.155 L 368.811,859.352 L 372.256,852.175 Z M 368.931,840.368 L 365.297,847.936 L 372.573,847.955 Z M 373.873,830.075 L 370.809,836.456 L 373.873,842.839 Z M 363.713,829.5 L 363.713,843.412 L 367.053,836.456 Z M 364.956,824.268 L 368.931,832.545 L 372.904,824.268 Z M 224.931,814.436 L 224.92,810.321 C 222.967,811.451 221.004,812.568 219.031,813.676 L 219.032,814.436 Z M 231.057,814.436 L 231.036,806.727 C 231.081,806.699 231.128,806.672 231.172,806.645 C 229.737,807.503 228.296,808.353 226.851,809.199 L 226.864,814.436 Z M 210.973,814.436 L 210.951,806.139 C 210.996,806.112 211.043,806.085 211.087,806.057 C 207.085,808.449 203.037,810.795 198.945,813.088 L 198.949,814.436 Z M 500.536,814.436 L 503.487,814.436 L 503.487,804.811 C 502.499,804.209 501.516,803.607 500.536,803.001 Z M 238.888,814.436 L 238.853,801.951 C 236.903,803.168 234.94,804.373 232.967,805.565 L 232.991,814.436 Z M 245.013,814.436 L 244.969,798.071 C 243.58,798.967 242.185,799.856 240.785,800.74 L 240.823,814.436 Z M 224.885,797.483 L 224.912,807.165 C 220.952,809.48 216.949,811.748 212.907,813.969 L 212.881,804.977 C 216.931,802.532 220.932,800.035 224.885,797.483 Z M 252.845,814.436 L 252.787,792.909 C 250.809,794.244 248.819,795.564 246.816,796.872 C 246.844,796.853 246.873,796.835 246.901,796.817 L 246.948,814.436 Z M 226.731,796.284 C 230.813,793.621 234.843,790.901 238.816,788.123 L 238.845,798.697 C 234.891,801.192 230.889,803.636 226.843,806.031 L 226.816,796.229 C 226.788,796.247 226.759,796.265 226.731,796.284 Z M 504.729,796.291 L 504.729,791.611 C 503.324,790.656 501.927,789.695 500.536,788.728 L 500.536,799.752 C 501.516,800.365 502.5,800.976 503.487,801.584 L 503.487,796.291 Z M 258.972,814.436 L 258.901,788.711 C 257.513,789.68 256.119,790.643 254.717,791.599 L 254.779,814.436 Z M 266.801,814.436 L 266.717,783.115 C 264.769,784.541 262.808,785.955 260.832,787.353 L 260.905,814.436 Z M 272.928,814.436 L 272.832,778.548 C 271.444,779.603 270.049,780.651 268.647,781.691 L 268.736,814.436 Z M 240.776,797.472 L 240.747,786.765 C 244.808,783.892 248.808,780.957 252.747,777.961 L 252.777,789.549 C 248.828,792.245 244.828,794.887 240.776,797.472 Z M 280.759,814.436 L 280.644,772.456 C 278.673,774.031 276.685,775.589 274.683,777.132 C 274.709,777.111 274.735,777.091 274.761,777.072 L 274.863,814.436 Z M 254.708,788.221 L 254.676,776.484 C 254.649,776.503 254.624,776.524 254.597,776.544 C 258.693,773.391 262.719,770.169 266.673,766.88 L 266.708,779.629 C 262.767,782.553 258.765,785.417 254.708,788.221 Z M 372.56,814.436 L 373.873,814.436 L 373.873,767.881 L 372.433,767.881 Z M 367.252,814.436 L 370.628,814.436 L 370.501,767.881 L 367.377,767.881 Z M 363.713,814.436 L 365.319,814.436 L 365.444,767.881 L 363.713,767.881 Z M 286.885,814.436 L 286.759,767.468 C 286.76,767.467 286.763,767.464 286.763,767.464 C 285.375,768.619 283.977,769.764 282.573,770.903 L 282.692,814.436 Z M 815.544,760.097 L 823.225,760.097 L 831.336,690.44 L 831.336,588.273 L 843.232,588.273 L 853.18,502.845 L 856.285,502.845 L 856.859,502.845 L 866.807,588.273 L 878.675,588.273 L 878.675,690.193 L 887.36,764.781 C 887.395,764.775 887.431,764.768 887.468,764.763 L 887.468,751.908 L 891.003,751.908 L 891.003,725.115 L 894.153,725.115 L 894.153,723.715 L 900.253,715.436 L 904.785,715.405 L 914.535,715.405 L 919.067,715.436 L 925.167,723.715 L 925.167,725.115 L 928.319,725.115 L 928.319,751.908 L 931.852,751.908 L 931.852,796.423 L 933.505,796.423 L 933.505,783.332 L 947.817,783.332 L 947.817,778.443 L 958.255,778.443 L 958.255,783.332 L 962.445,783.332 L 962.445,815.185 L 966.377,815.185 L 966.377,790.021 L 974.869,782.047 L 974.869,767.009 L 977.515,767.009 L 977.515,781.472 L 986.005,790.021 L 986.005,808.204 L 1011.61,808.204 L 1011.61,842.743 L 1018.64,842.743 L 1018.64,893.3 L 1024.57,893.3 L 1024.57,944.88 L 132.6,944.88 L 132.6,893.3 L 172.421,893.3 C 171.811,892.275 171.411,891.251 171.108,890.227 C 177.809,888.903 179.653,888.991 181.823,888.983 C 178.923,888.5 172.739,886.84 167.629,882.889 C 176.037,872.107 187.448,854.772 196.503,834.275 C 196.968,855.025 194.384,878.979 191.596,888.748 L 193.748,888.748 C 197.212,881.181 198.617,855.111 197.601,834.097 C 212.517,850.26 217.484,866.88 214.027,884.445 C 210.497,887.019 209.504,887.324 204.401,888.983 C 208.288,888.775 213.479,889.073 217.3,889.936 C 216.6,891.125 216.007,892.248 215.388,893.3 L 317.409,893.3 C 315.672,891.775 314.905,890.249 314.435,888.725 C 319.751,887.721 321.213,887.788 322.935,887.781 C 320.633,887.416 315.728,886.156 311.675,883.157 C 318.345,874.975 327.397,861.82 334.583,846.265 C 334.951,862.013 332.9,880.189 330.689,887.604 L 332.396,887.604 C 335.144,881.861 336.26,862.077 335.453,846.131 C 342.6,853.537 346.868,861.072 348.523,868.815 L 348.523,824.268 L 132.6,824.268 L 132.6,814.436 L 190.889,814.436 C 260.709,776.479 318.445,724.489 354.032,653.851 L 354.032,641.229 L 356.553,640.776 L 356.553,636.947 L 359.635,636.947 L 359.635,640.701 L 362.323,640.931 L 362.325,644.788 L 375.261,644.788 L 375.264,640.931 L 377.952,640.701 L 377.952,636.947 L 381.033,636.947 L 381.033,640.776 L 383.553,641.229 L 383.553,652.1 C 400.765,686.771 423.291,716.977 449.952,743.261 L 450.132,743.261 L 450.132,694.737 L 462.019,694.737 L 462.019,690.208 L 488.652,690.208 L 488.652,694.737 L 500.536,694.737 L 500.536,785.316 C 502.151,786.452 503.775,787.58 505.409,788.699 L 507.043,787.067 L 512.428,787.067 L 512.428,740.991 L 516.153,740.991 L 538.507,720.227 L 560.86,740.991 L 564.584,740.991 L 564.584,785.372 L 564.857,785.099 L 567.493,785.099 L 568.509,786.113 L 568.509,787.067 L 572.141,787.067 L 572.141,727.64 L 611.863,727.64 L 611.863,673.025 L 626.179,673.025 L 626.179,657.905 L 635.189,657.905 L 635.189,644.379 L 650.947,644.379 L 668.193,650.663 L 668.193,664.189 L 677.207,664.189 L 677.207,679.309 L 691.519,681.272 L 691.519,700.517 L 693.455,700.517 L 693.455,729.945 L 695.395,729.945 L 695.405,737.749 L 705.705,737.679 L 704.969,629.584 L 752.445,629.26 L 753.281,752.079 C 754.147,752.079 755.011,752.079 755.868,752.079 L 755.868,707.465 L 760.391,700.692 L 760.391,690.827 L 768.964,690.827 L 768.964,685.247 L 802.447,685.247 L 802.447,690.827 L 811.016,690.827 L 811.016,700.684 L 815.544,707.465 Z M 294.715,814.436 L 294.569,760.796 C 292.627,762.499 290.667,764.184 288.688,765.853 L 288.82,814.436 Z M 268.637,778.188 L 268.603,765.265 C 272.717,761.797 276.752,758.253 280.705,754.631 C 280.669,754.664 280.632,754.697 280.596,754.732 L 280.635,768.828 C 276.701,772.015 272.701,775.133 268.637,778.188 Z M 300.841,814.436 L 300.681,755.32 C 301.096,754.941 301.508,754.56 301.917,754.181 C 300.128,755.833 298.321,757.471 296.499,759.092 L 296.649,814.436 Z M 308.672,814.436 L 308.492,747.959 C 306.503,749.885 304.492,751.791 302.46,753.677 C 302.512,753.631 302.561,753.585 302.611,753.539 L 302.776,814.436 Z M 282.564,767.255 L 282.525,752.952 C 282.476,752.997 282.427,753.044 282.375,753.089 C 286.515,749.249 290.564,745.324 294.516,741.308 L 294.559,757.005 C 290.636,760.496 286.636,763.912 282.564,767.255 Z M 314.799,814.436 L 314.601,741.896 C 313.219,743.299 311.825,744.692 310.421,746.075 L 310.607,814.436 Z M 445.893,743.261 C 445.236,742.604 444.583,741.945 443.932,741.284 L 443.927,743.261 Z M 441.992,743.261 L 442.003,739.311 C 442.009,739.317 442.016,739.325 442.024,739.333 C 442.016,739.325 442.009,739.316 442.003,739.309 L 442.003,739.311 C 441.901,739.207 441.801,739.103 441.701,738.999 L 441.701,743.261 Z M 416.024,738.732 L 420.095,738.732 C 418.729,737.309 417.376,735.877 416.036,734.433 Z M 322.629,814.436 L 322.409,733.711 C 320.475,735.803 318.513,737.873 316.531,739.921 L 316.732,814.436 Z M 409.316,743.261 L 414.077,743.261 L 414.107,732.339 C 412.319,730.384 410.555,728.409 408.812,726.415 C 408.992,726.624 409.175,726.832 409.36,727.041 Z M 328.756,814.436 L 328.519,726.932 C 328.703,726.721 328.885,726.513 329.067,726.304 C 327.508,728.088 325.932,729.856 324.339,731.608 L 324.564,814.436 Z M 296.489,755.273 L 296.445,739.335 C 300.74,734.903 304.921,730.364 308.981,725.717 C 308.8,725.927 308.619,726.135 308.433,726.344 L 308.481,743.971 C 304.571,747.821 300.573,751.588 296.489,755.273 Z M 441.443,738.732 C 437.343,734.484 433.349,730.137 429.467,725.693 C 429.648,725.903 429.829,726.111 430.015,726.32 L 429.981,738.732 Z M 372.407,758.047 L 373.873,758.047 L 373.873,724.229 L 372.315,724.229 Z M 370.475,758.047 L 370.383,724.229 L 367.496,724.229 L 367.404,758.047 Z M 363.713,758.047 L 365.471,758.047 L 365.563,724.229 L 363.713,724.229 Z M 401.869,811.548 L 403.181,811.548 L 403.181,743.261 L 407.381,743.261 L 407.432,724.827 C 405.637,722.748 403.867,720.648 402.121,718.527 Z M 336.587,814.436 L 336.324,717.723 C 334.395,720.081 332.435,722.412 330.447,724.716 L 330.691,814.436 Z M 395.173,811.545 L 399.936,811.547 L 400.195,716.163 C 398.591,714.179 397.008,712.175 395.449,710.153 Z M 342.712,814.436 L 342.429,710.043 C 341.053,711.825 339.66,713.593 338.251,715.347 L 338.52,814.436 Z M 310.411,742.056 L 310.361,724.129 C 314.484,719.355 318.48,714.464 322.344,709.455 L 322.399,729.484 C 318.505,733.769 314.508,737.96 310.411,742.056 Z M 428.047,738.732 L 428.087,724.105 C 423.964,719.331 419.968,714.44 416.104,709.432 L 416.048,730.216 C 418.677,733.097 421.355,735.936 424.079,738.732 Z M 387.912,811.543 L 393.24,811.545 L 393.521,707.632 C 391.721,705.255 389.952,702.852 388.213,700.423 Z M 344.647,814.436 L 348.523,814.436 L 348.523,811.764 L 350.253,811.764 L 350.253,759.896 L 350.396,759.896 L 350.232,699.519 C 348.309,702.217 346.351,704.885 344.357,707.523 Z M 352.207,714.849 L 352.987,714.849 L 352.987,695.587 C 352.711,695.985 352.433,696.384 352.157,696.783 Z M 386.029,759.896 L 386.12,759.896 L 386.288,697.704 C 385.721,696.896 385.159,696.087 384.6,695.275 L 384.6,714.849 L 386.029,714.849 Z M 324.327,727.34 L 324.272,706.935 C 328.424,701.449 332.419,695.825 336.249,690.057 L 336.312,713.187 C 332.439,718.016 328.443,722.732 324.327,727.34 Z M 414.119,728.085 L 414.176,706.911 C 410.024,701.425 406.029,695.801 402.199,690.033 L 402.133,714.004 C 406.005,718.808 410.003,723.501 414.119,728.085 Z M 372.288,714.395 L 374.081,714.395 L 374.081,686.08 L 372.212,686.08 Z M 370.356,714.395 L 370.279,686.08 L 367.6,686.08 L 367.523,714.395 Z M 363.505,714.395 L 365.589,714.395 L 365.667,686.08 L 363.505,686.08 Z M 365.693,676.248 L 365.695,675.715 C 365.589,675.892 365.484,676.069 365.379,676.248 Z M 370.252,676.248 L 370.241,672.493 C 369.793,671.715 369.348,670.935 368.908,670.152 C 368.487,670.896 368.063,671.64 367.637,672.381 L 367.627,676.248 Z M 338.239,710.764 L 338.175,687.127 C 342.371,680.664 346.364,674.025 350.144,667.205 L 350.219,694.577 C 346.376,700.107 342.38,705.501 338.239,710.764 Z M 400.207,711.592 L 400.273,687.103 C 396.077,680.64 392.084,674.001 388.304,667.181 L 388.227,695.5 C 392.069,700.996 396.065,706.359 400.207,711.592 Z M 375.181,675.339 C 375.2,675.371 375.22,675.404 375.24,675.437 L 375.252,658.379 C 374.204,660.42 373.137,662.447 372.053,664.457 C 372.087,664.395 372.121,664.333 372.153,664.272 L 372.169,670.184 C 373.159,671.913 374.164,673.631 375.181,675.339 Z M 352.144,691.775 C 352.425,691.36 352.705,690.944 352.987,690.529 L 352.987,677.499 L 354.032,677.499 L 354.032,659.984 C 353.351,661.285 352.663,662.58 351.968,663.869 C 352.001,663.807 352.036,663.745 352.068,663.684 Z M 386.301,692.717 L 386.38,663.661 C 385.423,661.885 384.48,660.099 383.553,658.3 L 383.553,677.499 L 384.6,677.499 L 384.6,690.207 C 385.163,691.045 385.731,691.883 386.301,692.717 Z M 362.347,675.811 C 363.484,673.912 364.605,672 365.709,670.073 L 365.725,664.383 C 364.573,662.245 363.443,660.092 362.335,657.921 Z M 368.909,664.356 C 370.661,661.149 372.367,657.905 374.025,654.62 L 363.797,654.62 C 365.453,657.905 367.157,661.151 368.909,664.356 Z "/>
	</g>
</svg>