<?xml version="1.0" encoding="UTF-8" standalone="no"?>
<svg version="1.1" xmlns="http://www.w3.org/2000/svg" xmlns:xlink="http://www.w3.org/1999/xlink" width="893.44" height="469.12">
	<g id="dp_dp001" transform="matrix(1,0,0,1,-131.933,-476.401)">
		<path id="dp_path004" fill="black" fill-rule="evenodd" stroke="none" stroke-width="0" d="M 560.816,813.316 L 560.031,813.329 L 558.528,815.584 L 558.528,817.924 L 558.369,817.924 L 545.748,804.791 L 545.751,804.784 L 545.745,804.789 L 545.741,804.784 L 545.743,804.791 L 533.121,817.924 L 532.963,817.924 L 532.963,815.584 L 531.46,813.329 L 530.675,813.316 L 528.979,815.584 L 528.979,819.448 L 527.649,819.448 L 527.649,787.067 L 527.649,786.113 L 526.633,785.099 L 523.999,785.099 L 522.983,786.113 L 522.983,787.067 L 507.043,787.067 L 504.729,789.377 L 504.729,796.291 L 503.487,796.291 L 503.487,826.251 L 501.707,826.251 L 501.707,844.235 L 492.965,844.235 L 492.987,774.481 L 488.149,774.481 L 488.023,757.623 L 485.765,757.224 L 480.783,733.712 L 480.119,733.703 L 480.119,726.841 L 478.597,726.841 L 478.597,714.352 C 487.809,713.849 481.987,718.425 492.789,714.916 L 492.789,706.519 C 483.568,709.807 486.984,704.497 478.377,705.905 L 476.263,705.905 L 476.263,726.841 L 474.741,726.841 L 474.741,733.793 L 473.715,733.793 L 469.041,757.395 L 466.724,757.684 L 466.583,774.693 L 461.873,774.704 L 461.873,844.235 L 451.424,844.235 L 451.424,800.089 L 420.013,800.089 L 420.013,846.827 L 414.469,846.827 L 414.537,811.552 L 386.928,811.543 L 386.264,878.092 L 380.809,878.092 C 378.976,880.115 375.604,889.093 370.601,893.3 L 347.913,893.3 C 349.196,891.921 349.967,890.315 351.081,888.505 C 348.049,887.851 343.932,887.624 340.848,887.781 C 344.896,886.523 345.684,886.292 348.484,884.337 C 351.228,871.008 347.288,858.396 335.453,846.131 C 336.26,862.077 335.144,881.861 332.396,887.604 L 330.689,887.604 C 332.9,880.189 334.951,862.013 334.583,846.265 C 327.397,861.82 318.345,874.975 311.675,883.157 C 315.728,886.156 320.633,887.416 322.935,887.781 C 321.213,887.788 319.751,887.721 314.435,888.725 C 314.905,890.249 315.672,891.775 317.409,893.3 L 215.388,893.3 C 216.007,892.248 216.6,891.125 217.3,889.936 C 213.479,889.073 208.288,888.775 204.401,888.983 C 209.504,887.324 210.497,887.019 214.027,884.445 C 217.484,866.88 212.517,850.26 197.601,834.097 C 198.617,855.111 197.212,881.181 193.748,888.748 L 191.596,888.748 C 194.384,878.979 196.968,855.025 196.503,834.275 C 187.448,854.772 176.037,872.107 167.629,882.889 C 172.739,886.84 178.923,888.5 181.823,888.983 C 179.653,888.991 177.809,888.903 171.108,890.227 C 171.411,891.251 171.811,892.275 172.421,893.3 L 132.6,893.3 L 132.6,944.88 L 1024.57,944.88 L 1024.57,893.3 L 1018.64,893.3 L 1018.64,842.743 L 991.287,842.743 L 991.287,851.703 L 979.301,851.703 L 979.301,865.559 L 974.461,862.483 L 974.461,836.667 L 965.403,827.495 L 957.752,835.248 L 957.752,825.496 L 948.693,816.324 L 940.26,824.871 L 940.26,814.693 L 931.097,805.416 L 921.944,814.693 L 921.944,816.328 L 921.173,816.328 L 921.173,807.316 C 921.655,807.019 921.976,806.491 921.976,805.885 C 921.976,805.28 921.655,804.751 921.173,804.456 L 921.173,789.04 C 921.655,788.755 921.976,788.247 921.976,787.665 C 921.976,786.772 921.22,786.049 920.287,786.049 C 919.661,786.049 919.115,786.373 918.824,786.856 L 918.048,786.856 L 918.047,777.46 L 920.564,777.42 C 921.04,777.105 921.036,775.844 920.555,775.568 L 919.925,775.571 L 917.251,775.511 L 916.645,775.511 L 908.576,772.703 L 908.612,767.723 C 909.665,767.987 910.207,768.165 911.144,768.559 L 911.888,767.26 C 907.004,765.497 900.439,763.973 895.192,763.972 S 883.048,765.46 878.061,767.26 L 878.805,768.557 C 879.743,768.164 880.284,767.985 881.337,767.721 L 881.373,772.703 L 873.304,775.509 L 872.699,775.509 L 870.024,775.569 L 869.395,775.567 C 868.913,775.843 868.909,777.104 869.385,777.42 L 871.903,777.459 L 871.901,786.855 L 871.125,786.855 C 870.835,786.372 870.288,786.048 869.663,786.048 C 868.729,786.048 867.973,786.771 867.973,787.664 C 867.973,788.245 868.295,788.753 868.776,789.039 L 868.776,804.455 C 868.295,804.751 867.973,805.279 867.973,805.884 C 867.973,806.489 868.295,807.019 868.776,807.315 L 868.776,816.328 L 867.66,816.328 L 867.66,818.956 C 861.939,815.292 856.217,811.628 850.497,807.965 L 850.497,760.097 L 844.105,760.097 L 844.105,754.56 L 831.044,754.56 L 831.044,760.097 L 808.648,760.097 L 808.648,795.009 L 801.609,795.009 L 801.609,789.155 L 796.469,789.155 L 795.193,741.195 L 794.56,741.195 L 794.56,724.652 L 793.232,724.652 L 793.232,718.047 L 786.225,718.047 L 779.625,718.047 L 779.625,724.652 L 778.297,724.652 L 778.297,741.195 L 777.796,741.195 L 776.612,789.155 L 771.515,789.155 L 771.515,806.196 L 768.095,806.196 L 768.095,758.48 L 763.903,758.48 L 760.44,752.079 C 755.095,752.079 749.352,752.079 743.759,752.079 L 736.632,752.079 L 733.169,758.48 L 728.973,758.48 L 728.973,826.989 L 727.159,826.989 L 727.159,796.424 L 719.313,796.424 L 719.313,761.165 L 716.793,761.165 L 716.793,771.329 L 716.025,771.191 L 715.684,769.229 L 713.669,768.867 C 713.609,764.695 713.163,759.791 709.64,754.324 C 707.729,751.356 703.011,746.604 697.505,745.461 L 697.505,741.352 L 695.411,741.352 L 695.395,729.945 L 693.455,729.945 L 693.455,700.517 L 690.288,700.517 L 690.288,729.945 L 688.347,729.945 L 688.331,741.352 L 686.236,741.352 L 686.236,745.461 C 680.731,746.604 676.012,751.356 674.101,754.324 C 670.579,759.791 670.132,764.695 670.072,768.867 L 668.057,769.229 L 667.716,771.191 L 666.948,771.329 L 666.948,761.165 L 664.428,761.165 L 664.428,796.424 L 656.583,796.424 L 656.583,830.361 L 638.101,830.361 L 638.101,826.175 L 638.959,826.175 L 642.288,822.695 L 642.288,821.149 L 638.101,821.149 L 638.101,807.172 C 638.849,805.28 640.136,804.107 642.061,803.589 L 643.033,803.544 L 643.027,801.728 L 640.287,801.728 C 640.221,800.315 639.499,798.88 638.639,797.745 C 639.332,797.268 639.784,796.497 639.784,795.628 C 639.784,794.549 639.091,793.624 638.101,793.223 L 638.101,792.732 C 638.179,792.435 638.22,792.119 638.22,791.792 C 638.22,789.993 636.971,788.536 635.429,788.536 C 635.145,788.536 634.873,788.585 634.615,788.677 C 634.267,787.481 633.501,786.327 632.381,785.664 L 630.649,786.071 C 629.861,786.304 628.473,787.224 627.799,788.045 L 627.799,757.041 L 627.139,757.041 L 627.139,748.584 L 627.799,748.584 L 627.761,745.865 C 627.653,744.44 627.96,743.368 629.341,742.771 L 630.535,742.771 L 630.973,741.559 L 632.241,740.392 L 632.241,740.391 C 632.293,740.353 632.341,740.311 632.384,740.26 C 632.385,740.255 632.388,740.253 632.391,740.251 C 632.515,740.111 632.592,739.911 632.592,739.688 C 632.592,739.397 632.459,739.144 632.264,739.013 L 632.264,739.012 L 630.996,737.845 L 630.064,736.931 L 626.755,736.931 C 625.037,735.728 623.424,733.653 623.335,730.869 L 623.335,728.321 L 622.531,726.724 L 622.531,725.541 C 622.971,724.628 623.693,724.111 624.372,723.808 C 627.719,719.172 628.619,714.135 624.372,708.175 L 624.973,706.551 L 627.332,705.204 L 627.332,703.924 L 622.755,699.397 L 621.824,699.397 L 621.824,690.149 C 622.324,689.664 622.636,688.987 622.636,688.239 C 622.636,686.764 621.432,685.569 619.945,685.569 C 618.459,685.569 617.255,686.764 617.255,688.239 C 617.255,688.985 617.563,689.66 618.063,690.145 L 618.063,699.397 L 617.411,699.397 L 612.833,703.924 L 612.833,705.204 L 615.192,706.551 L 615.793,708.175 C 611.547,714.135 612.447,719.172 615.793,723.808 C 616.472,724.111 617.195,724.628 617.635,725.541 L 617.635,726.724 L 616.831,728.321 L 616.831,730.869 C 616.74,733.653 615.128,735.728 613.411,736.931 L 610.101,736.931 L 609.169,737.845 L 607.901,739.012 L 607.901,739.013 C 607.707,739.144 607.573,739.397 607.573,739.688 C 607.573,739.911 607.651,740.111 607.775,740.251 C 607.777,740.253 607.78,740.255 607.781,740.26 C 607.824,740.311 607.872,740.353 607.924,740.391 L 607.924,740.392 L 609.192,741.559 L 609.631,742.771 L 610.824,742.771 C 612.205,743.368 612.512,744.44 612.404,745.865 L 612.367,748.584 L 613.027,748.584 L 613.027,757.041 L 612.367,757.041 L 612.367,788.045 C 611.692,787.224 610.304,786.304 609.516,786.071 L 607.784,785.664 C 606.664,786.327 605.899,787.481 605.551,788.677 C 605.292,788.585 605.02,788.536 604.736,788.536 C 603.195,788.536 601.945,789.993 601.945,791.792 C 601.945,792.119 601.987,792.435 602.064,792.732 L 602.064,793.223 C 601.075,793.624 600.381,794.549 600.381,795.628 C 600.381,796.497 600.833,797.268 601.527,797.745 C 600.667,798.88 599.944,800.315 599.879,801.728 L 597.139,801.728 L 597.132,803.544 L 598.104,803.589 C 600.029,804.107 601.316,805.28 602.064,807.172 L 602.064,821.149 L 597.877,821.149 L 597.877,822.695 L 601.207,826.175 L 602.064,826.175 L 602.064,836.165 C 600.481,840.724 596.021,841.444 593.749,842.023 L 593.755,842.024 L 593.749,842.024 L 593.749,858.752 L 589.784,858.752 L 589.784,826.251 L 588.004,826.251 L 588.004,796.291 L 586.195,796.291 L 586.195,789.377 L 583.881,787.067 L 568.509,787.067 L 568.509,786.113 L 567.493,785.099 L 564.857,785.099 L 563.841,786.113 L 563.841,787.067 L 563.841,819.448 L 562.513,819.448 L 562.513,815.584 Z M 876.719,824.756 C 877.705,825.388 878.692,826.02 879.68,826.652 C 879.831,826.513 879.983,826.376 880.131,826.237 L 880.131,824.756 Z M 921.944,820.568 L 921.944,829.932 C 918.419,829.932 914.893,829.932 911.369,829.932 C 911.58,829.673 911.716,829.38 911.728,829.075 C 911.772,827.825 910.709,827.083 909.819,826.239 L 909.819,824.757 L 916.195,824.757 L 916.195,820.568 Z M 870.176,820.567 C 871.368,821.329 872.561,822.093 873.755,822.859 L 873.755,820.567 Z M 919.035,807.016 C 919.141,807.132 919.265,807.235 919.403,807.317 L 919.403,816.328 L 918.051,816.328 L 918.049,806.693 L 918.804,806.693 C 918.867,806.809 918.945,806.917 919.035,807.016 Z M 870.915,807.015 C 870.808,807.131 870.684,807.233 870.547,807.317 L 870.547,816.328 L 871.899,816.328 L 871.9,806.692 L 871.145,806.692 C 871.083,806.808 871.004,806.916 870.915,807.015 Z M 918.82,788.471 C 918.961,788.704 919.161,788.901 919.403,789.043 L 919.403,804.453 C 919.151,804.605 918.944,804.821 918.804,805.079 L 918.049,805.079 L 918.048,788.471 Z M 871.129,788.469 C 870.988,788.703 870.788,788.9 870.547,789.041 L 870.547,804.452 C 870.799,804.604 871.005,804.82 871.145,805.077 L 871.9,805.077 L 871.901,788.469 Z M 914.163,798.257 L 902.989,798.257 L 903.112,780.827 C 907.072,779.752 910.464,779.793 914.163,780.827 Z M 875.787,798.256 L 886.96,798.256 L 886.837,780.825 C 882.877,779.751 879.485,779.792 875.787,780.825 Z M 889.395,779.523 L 889.395,798.256 L 895.172,798.256 L 895.172,798.257 L 900.555,798.257 L 900.555,779.523 C 898.624,778.964 896.777,778.684 894.889,778.704 C 893.061,778.699 891.267,778.979 889.395,779.523 Z M 790.783,732.501 L 790.783,739.537 L 787.773,739.537 L 787.773,732.501 L 787.777,732.501 C 787.777,732.477 787.776,732.453 787.776,732.429 C 787.776,731.635 788.449,730.989 789.279,730.989 C 790.108,730.989 790.781,731.635 790.781,732.429 C 790.781,732.453 790.781,732.477 790.779,732.501 Z M 782.075,732.501 L 782.075,739.537 L 785.084,739.537 L 785.084,732.501 L 785.08,732.501 C 785.08,732.477 785.081,732.453 785.081,732.429 C 785.081,731.635 784.408,730.989 783.579,730.989 C 782.749,730.989 782.076,731.635 782.076,732.429 C 782.076,732.453 782.076,732.477 782.079,732.501 Z M 787.776,724.652 L 789.92,724.652 L 789.92,721.451 C 789.888,720.905 789.421,720.473 788.848,720.473 C 788.277,720.473 787.811,720.905 787.777,721.451 L 787.776,721.451 Z M 785.081,724.652 L 782.937,724.652 L 782.937,721.451 C 782.969,720.905 783.436,720.473 784.008,720.473 C 784.58,720.473 785.047,720.905 785.08,721.451 L 785.081,721.451 Z "/>
	</g>
</svg>