<?xml version="1.0" encoding="UTF-8" standalone="no"?>
<svg version="1.1" xmlns="http://www.w3.org/2000/svg" xmlns:xlink="http://www.w3.org/1999/xlink" width="893.44" height="469.12">
	<g id="dp_dp001" transform="matrix(1,0,0,1,-131.933,-476.401)">
		<path id="dp_path002" fill="#7a7a7a" fill-rule="evenodd" stroke="none" stroke-width="0" d="M 373.799,877.567 L 363.713,877.539 L 363.713,879.055 L 365.601,882.373 C 366.269,883.197 366.923,883.997 367.56,884.772 L 373.873,884.772 L 373.873,877.713 L 373.871,877.716 Z M 368.811,867.176 L 365.859,873.325 L 371.771,873.341 Z M 373.873,856.631 L 370.688,863.264 L 373.873,869.897 Z M 363.713,856.559 L 363.713,869.969 L 366.932,863.264 Z M 365.355,852.155 L 368.811,859.352 L 372.256,852.175 Z M 315.987,824.268 L 348.523,824.268 L 348.523,857.151 L 342.451,854.759 C 340.535,851.86 338.208,848.985 335.453,846.131 C 335.561,848.288 335.636,850.517 335.675,852.772 L 335.148,852.745 L 335.148,832.325 L 315.987,832.325 Z M 368.931,840.368 L 365.297,847.936 L 372.573,847.955 Z M 373.873,830.075 L 370.809,836.456 L 373.873,842.839 Z M 363.713,829.5 L 363.713,843.412 L 367.053,836.456 Z M 364.956,824.268 L 368.931,832.545 L 372.904,824.268 Z M 244.971,798.795 L 244.969,798.071 C 244.593,798.312 244.219,798.553 243.843,798.795 Z M 224.885,797.483 L 224.889,798.795 L 222.84,798.795 C 223.523,798.359 224.204,797.921 224.885,797.483 Z M 252.803,798.795 L 252.787,792.909 C 250.809,794.244 248.819,795.564 246.816,796.872 C 246.844,796.853 246.873,796.835 246.901,796.817 L 246.907,798.795 Z M 173.913,807.252 L 182.029,807.252 L 181.987,796.773 C 180.873,797.025 179.639,797.175 178.268,797.185 C 178.207,797.185 178.148,797.185 178.091,797.189 C 176.549,797.196 175.177,797.032 173.956,796.744 Z M 226.731,796.284 C 230.813,793.621 234.843,790.901 238.816,788.123 L 238.845,798.697 C 238.793,798.729 238.741,798.761 238.691,798.795 L 226.823,798.795 L 226.816,796.229 C 226.788,796.247 226.759,796.265 226.731,796.284 Z M 184.821,807.252 L 186.035,807.252 L 186.035,798.795 L 188.824,798.795 L 188.643,793.129 L 188.637,793.135 C 187.647,794.125 186.387,795.095 184.775,795.836 Z M 167.304,793.012 L 167.309,793.017 C 168.291,794.023 169.548,795.013 171.167,795.776 L 171.12,807.252 L 166.849,807.252 Z M 266.76,798.795 L 266.717,783.115 C 266.352,783.381 265.988,783.647 265.623,783.913 L 266.051,798.795 Z M 272.887,798.795 L 272.832,778.548 C 271.444,779.603 270.049,780.651 268.647,781.691 L 268.693,798.795 Z M 240.776,797.472 L 240.747,786.765 C 244.808,783.892 248.808,780.957 252.747,777.961 L 252.777,789.549 C 248.828,792.245 244.828,794.887 240.776,797.472 Z M 280.759,814.436 L 280.644,772.456 C 278.673,774.031 276.685,775.589 274.683,777.132 C 274.709,777.111 274.735,777.091 274.761,777.072 L 274.82,798.795 L 278.419,798.795 L 278.419,814.436 Z M 372.56,814.436 L 373.873,814.436 L 373.873,767.881 L 372.433,767.881 Z M 367.252,814.436 L 370.628,814.436 L 370.501,767.881 L 367.377,767.881 Z M 363.713,814.436 L 365.319,814.436 L 365.444,767.881 L 363.713,767.881 Z M 286.885,814.436 L 286.759,767.468 C 286.76,767.467 286.763,767.464 286.763,767.464 C 285.375,768.619 283.977,769.764 282.573,770.903 L 282.692,814.436 Z M 265.525,780.503 L 265.212,769.625 L 265.212,768.089 C 265.7,767.687 266.187,767.284 266.673,766.88 L 266.708,779.629 C 266.313,779.92 265.92,780.212 265.525,780.503 Z M 289.312,796.928 L 289.312,814.436 L 288.82,814.436 L 288.688,765.853 C 290.667,764.184 292.627,762.499 294.569,760.796 L 294.699,808.696 L 294.092,809.405 L 294.092,796.928 Z M 268.637,778.188 L 268.603,765.265 C 272.717,761.797 276.752,758.253 280.705,754.631 C 280.669,754.664 280.632,754.697 280.596,754.732 L 280.635,768.828 C 276.701,772.015 272.701,775.133 268.637,778.188 Z M 296.628,806.444 L 296.499,759.092 C 298.321,757.471 300.128,755.833 301.917,754.181 C 301.508,754.56 301.096,754.941 300.681,755.32 L 300.807,801.807 L 300.597,801.807 Z M 308.657,808.839 L 308.492,747.959 C 306.503,749.885 304.492,751.791 302.46,753.677 C 302.512,753.631 302.561,753.585 302.611,753.539 L 302.743,801.929 Z M 282.564,767.255 L 282.525,752.952 C 282.476,752.997 282.427,753.044 282.375,753.089 C 286.515,749.249 290.564,745.324 294.516,741.308 L 294.559,757.005 C 290.636,760.496 286.636,763.912 282.564,767.255 Z M 314.789,810.837 L 314.601,741.896 C 313.219,743.299 311.825,744.692 310.421,746.075 L 310.597,810.837 Z M 444.16,743.261 L 444.16,741.515 C 444.083,741.437 444.007,741.36 443.932,741.284 L 443.927,743.261 Z M 441.992,743.261 L 442.003,739.311 C 442.009,739.317 442.016,739.325 442.024,739.333 C 442.016,739.325 442.009,739.316 442.003,739.309 L 442.003,739.311 C 441.901,739.207 441.801,739.103 441.701,738.999 L 441.701,743.261 Z M 416.024,738.732 L 420.095,738.732 C 418.729,737.309 417.376,735.877 416.036,734.433 Z M 322.629,814.436 L 322.409,733.711 C 320.475,735.803 318.513,737.873 316.531,739.921 L 316.732,814.436 Z M 409.316,743.261 L 414.077,743.261 L 414.107,732.339 C 412.319,730.384 410.555,728.409 408.812,726.415 C 408.992,726.624 409.175,726.832 409.36,727.041 Z M 328.756,814.436 L 328.519,726.932 C 328.703,726.721 328.885,726.513 329.067,726.304 C 327.508,728.088 325.932,729.856 324.339,731.608 L 324.564,814.436 Z M 296.489,755.273 L 296.445,739.335 C 300.74,734.903 304.921,730.364 308.981,725.717 C 308.8,725.927 308.619,726.135 308.433,726.344 L 308.481,743.971 C 304.571,747.821 300.573,751.588 296.489,755.273 Z M 441.443,738.732 C 437.343,734.484 433.349,730.137 429.467,725.693 C 429.648,725.903 429.829,726.111 430.015,726.32 L 429.981,738.732 Z M 372.407,758.047 L 373.873,758.047 L 373.873,724.229 L 372.315,724.229 Z M 370.475,758.047 L 370.383,724.229 L 367.496,724.229 L 367.404,758.047 Z M 363.713,758.047 L 365.471,758.047 L 365.563,724.229 L 363.713,724.229 Z M 401.869,811.548 L 403.181,811.548 L 403.181,743.261 L 407.381,743.261 L 407.432,724.827 C 405.637,722.748 403.867,720.648 402.121,718.527 Z M 336.587,814.436 L 336.324,717.723 C 334.395,720.081 332.435,722.412 330.447,724.716 L 330.691,814.436 Z M 395.173,811.545 L 399.936,811.547 L 400.195,716.163 C 398.591,714.179 397.008,712.175 395.449,710.153 Z M 342.712,814.436 L 342.429,710.043 C 341.053,711.825 339.66,713.593 338.251,715.347 L 338.52,814.436 Z M 310.411,742.056 L 310.361,724.129 C 314.484,719.355 318.48,714.464 322.344,709.455 L 322.399,729.484 C 318.505,733.769 314.508,737.96 310.411,742.056 Z M 428.047,738.732 L 428.087,724.105 C 423.964,719.331 419.968,714.44 416.104,709.432 L 416.048,730.216 C 418.677,733.097 421.355,735.936 424.079,738.732 Z M 387.912,811.543 L 393.24,811.545 L 393.521,707.632 C 391.721,705.255 389.952,702.852 388.213,700.423 Z M 344.647,814.436 L 348.523,814.436 L 348.523,811.764 L 350.253,811.764 L 350.253,759.896 L 350.396,759.896 L 350.232,699.519 C 348.309,702.217 346.351,704.885 344.357,707.523 Z M 352.207,714.849 L 352.987,714.849 L 352.987,695.587 C 352.711,695.985 352.433,696.384 352.157,696.783 Z M 386.029,759.896 L 386.12,759.896 L 386.288,697.704 C 385.721,696.896 385.159,696.087 384.6,695.275 L 384.6,714.849 L 386.029,714.849 Z M 324.327,727.34 L 324.272,706.935 C 328.424,701.449 332.419,695.825 336.249,690.057 L 336.312,713.187 C 332.439,718.016 328.443,722.732 324.327,727.34 Z M 414.119,728.085 L 414.176,706.911 C 410.024,701.425 406.029,695.801 402.199,690.033 L 402.133,714.004 C 406.005,718.808 410.003,723.501 414.119,728.085 Z M 372.288,714.395 L 374.081,714.395 L 374.081,686.08 L 372.212,686.08 Z M 370.356,714.395 L 370.279,686.08 L 367.6,686.08 L 367.523,714.395 Z M 363.505,714.395 L 365.589,714.395 L 365.667,686.08 L 363.505,686.08 Z M 265.212,764.403 C 301.676,733.929 332.071,697.441 354.032,653.851 L 354.032,641.229 L 356.553,640.776 L 356.553,636.947 L 359.635,636.947 L 359.635,640.701 L 362.323,640.931 L 362.325,644.788 L 375.261,644.788 L 375.264,640.931 L 377.952,640.701 L 377.952,636.947 L 381.033,636.947 L 381.033,640.776 L 383.553,641.229 L 383.553,652.1 C 399.504,684.229 420.017,712.527 444.16,737.42 L 444.16,620.191 L 448.087,620.191 L 448.087,612.771 L 480.091,612.771 L 480.091,620.191 L 484.019,620.191 L 484.019,690.208 L 488.652,690.208 L 488.652,694.737 L 490.995,694.737 L 490.995,644.915 L 529.107,644.915 L 529.107,728.959 L 538.507,720.227 L 547.303,728.397 L 547.303,721.021 L 568.976,721.021 L 574.021,677.095 L 576.756,579.129 L 591.825,584 L 611.415,578.079 L 611.415,554.009 L 614.333,554.009 L 614.333,591.273 L 617.332,592.243 L 618.46,673.025 L 626.179,673.025 L 626.179,657.905 L 635.189,657.905 L 635.189,644.379 L 650.947,644.379 L 655.308,645.968 C 656.237,587.904 658.744,530.677 666.048,478.097 C 678.3,475.877 690.553,475.795 702.807,478.097 C 709.415,525.707 712.095,577.127 713.236,629.528 L 729.367,629.417 L 729.367,624.788 L 773.849,624.788 L 773.849,630.649 L 785.852,630.649 L 785.852,685.247 L 790.051,685.247 L 790.051,550.983 L 810.567,550.983 L 810.567,542.991 L 814.48,542.991 L 814.48,549.751 L 816.357,548.98 L 816.357,542.991 L 820.271,542.991 L 820.271,547.373 L 837.145,540.445 L 837.145,588.273 L 843.232,588.273 L 853.18,502.845 L 856.285,502.845 L 856.859,502.845 L 866.807,588.273 L 878.675,588.273 L 878.675,638.604 L 886.457,638.604 L 886.457,625.76 L 930.94,625.76 L 930.94,638.604 L 942.943,638.604 L 942.943,783.332 L 947.817,783.332 L 947.817,778.443 L 958.255,778.443 L 958.255,783.332 L 958.379,783.332 L 958.379,693.996 L 972.911,693.937 L 973.011,690.208 L 983.397,690.199 L 983.363,679.017 L 985.523,678.989 L 985.444,661.984 L 987.593,659.852 L 989.608,659.837 L 989.628,699.915 L 993.772,699.895 L 993.783,659.799 L 995.619,659.795 L 997.936,661.848 L 997.989,678.924 L 1000.02,678.9 L 1000.02,690.208 L 1010.29,690.208 L 1010.49,693.996 L 1020.84,693.996 L 1020.84,893.3 L 1024.57,893.3 L 1024.57,944.88 L 132.6,944.88 L 132.6,893.3 L 132.6,877.156 C 134.752,875.34 137.092,873.645 139.641,872.101 C 147.011,859.068 151.355,852.344 156.211,848.836 L 156.211,824.268 L 132.6,824.268 L 132.6,814.436 L 156.211,814.436 L 156.211,807.252 L 164.049,807.252 L 164.62,789.379 C 164.616,789.373 164.613,789.368 164.611,789.364 C 164.608,789.361 164.608,789.361 164.608,789.361 L 162.437,789.361 L 162.437,786.253 L 163.824,786.253 L 163.824,775.059 L 163.708,775.056 L 177.972,768.537 L 192.117,775.056 L 192.117,775.059 L 192.117,786.253 L 193.505,786.253 L 193.505,789.361 L 191.452,789.361 C 191.412,789.425 191.372,789.493 191.329,789.564 L 191.624,798.795 L 217.668,798.795 C 230.413,790.797 242.667,782.263 254.357,773.159 L 254.459,769.625 L 254.459,761.764 L 256.34,761.764 L 256.34,751.924 L 259.835,748.645 L 259.835,748.643 L 263.329,751.921 L 263.329,761.764 L 265.212,761.764 Z M 365.693,676.248 L 365.695,675.715 C 365.589,675.892 365.484,676.069 365.379,676.248 Z M 370.252,676.248 L 370.241,672.493 C 369.793,671.715 369.348,670.935 368.908,670.152 C 368.487,670.896 368.063,671.64 367.637,672.381 L 367.627,676.248 Z M 338.239,710.764 L 338.175,687.127 C 342.371,680.664 346.364,674.025 350.144,667.205 L 350.219,694.577 C 346.376,700.107 342.38,705.501 338.239,710.764 Z M 400.207,711.592 L 400.273,687.103 C 396.077,680.64 392.084,674.001 388.304,667.181 L 388.227,695.5 C 392.069,700.996 396.065,706.359 400.207,711.592 Z M 375.181,675.339 C 375.2,675.371 375.22,675.404 375.24,675.437 L 375.252,658.379 C 374.204,660.42 373.137,662.447 372.053,664.457 C 372.087,664.395 372.121,664.333 372.153,664.272 L 372.169,670.184 C 373.159,671.913 374.164,673.631 375.181,675.339 Z M 352.144,691.775 C 352.425,691.36 352.705,690.944 352.987,690.529 L 352.987,677.499 L 354.032,677.499 L 354.032,659.984 C 353.351,661.285 352.663,662.58 351.968,663.869 C 352.001,663.807 352.036,663.745 352.068,663.684 Z M 386.301,692.717 L 386.38,663.661 C 385.423,661.885 384.48,660.099 383.553,658.3 L 383.553,677.499 L 384.6,677.499 L 384.6,690.207 C 385.163,691.045 385.731,691.883 386.301,692.717 Z M 362.347,675.811 C 363.484,673.912 364.605,672 365.709,670.073 L 365.725,664.383 C 364.573,662.245 363.443,660.092 362.335,657.921 Z M 368.909,664.356 C 370.661,661.149 372.367,657.905 374.025,654.62 L 363.797,654.62 C 365.453,657.905 367.157,661.151 368.909,664.356 Z "/>
	</g>
</svg>