<?xml version="1.0" encoding="utf-8"?>
<!-- Generator: Adobe Illustrator 26.2.1, SVG Export Plug-In . SVG Version: 6.00 Build 0)  -->
<svg version="1.1" id="Layer_1" xmlns="http://www.w3.org/2000/svg" xmlns:xlink="http://www.w3.org/1999/xlink" x="0px" y="0px"
	 viewBox="0 0 574.3 257" style="enable-background:new 0 0 574.3 315;" xml:space="preserve">
<style type="text/css">
	.st0{fill:#EA4335;}
	.st1{fill:url(#SVGID_1_);}
	.st2{fill:#FBBC04;}
	.st3{fill:#34A853;}
	.st4{fill:#757575;}
	.st5{display:none;fill:#757575;}
	.st6{font-family:'ProductSans-Regular';}
	.st7{font-size:49px;}
</style>
<g>
	<path class="st0" d="M332.3,83c25,25,25,65.5,0,90.5c-12.5,12.5-12.5,32.8,0,45.2c12.5,12.5,32.8,12.5,45.3,0c50-50,50-131,0-181
		L332.3,83z"/>
	
		<linearGradient id="SVGID_1_" gradientUnits="userSpaceOnUse" x1="-826.0743" y1="1124.7321" x2="-825.0743" y2="1124.7321" gradientTransform="matrix(227.8001 0 0 -218.5 188338.9844 245863.4375)">
		<stop  offset="0" style="stop-color:#246FDB"/>
		<stop  offset="5.520000e-02" style="stop-color:#2973DF"/>
		<stop  offset="0.2781" style="stop-color:#377DEB"/>
		<stop  offset="0.5491" style="stop-color:#3F83F2"/>
		<stop  offset="1" style="stop-color:#4285F4"/>
	</linearGradient>
	<path class="st1" d="M377.5,37.7c-50-50-130.9-50-180.9,0s-50,131,0,181l45.3-45.2c-25-25-25-65.5,0-90.5s65.5-25,90.5,0
		c12.5,12.5,32.8,12.5,45.3,0C390,70.5,390,50.2,377.5,37.7z"/>
	<path class="st2" d="M377.5,218.7l-45.3-45.2c-25,25-65.5,25-90.5,0l-45.3,45.2C246.6,268.7,327.5,268.7,377.5,218.7z"/>
	<path class="st0" d="M332.3,173.5c12.5-12.5,32.7-12.5,45.2,0s12.5,32.8,0,45.3s-32.7,12.5-45.2,0S319.8,186,332.3,173.5z"/>
	<path class="st3" d="M196.6,173.5c12.5-12.5,32.7-12.5,45.2,0s12.5,32.8,0,45.3s-32.7,12.5-45.2,0S184.1,186,196.6,173.5z"/>
</g> 
<text transform="matrix(1 0 0 1 171.3261 303.4966)" class="st5 st6 st7">Marketing Platform                     </text>
</svg>
