<?xml version="1.0" encoding="utf-8"?>
<!-- Generator: Adobe Illustrator 26.2.1, SVG Export Plug-In . SVG Version: 6.00 Build 0)  -->
<svg version="1.1" id="Layer_1" xmlns="http://www.w3.org/2000/svg" xmlns:xlink="http://www.w3.org/1999/xlink" x="0px" y="0px"
	 viewBox="0 250 574.3 67" style="enable-background:new 0 0 574.3 315;" xml:space="preserve">
<style type="text/css">
	.st4{fill:#757575;}
	.st5{display:none;fill:#757575;}
	.st6{font-family:'ProductSans-Regular';}
	.st7{font-size:49px;}
</style>
<path class="st4" d="M20.7,262.6C9.4,262.6,0,271.7,0,282.9s9.4,20.2,20.7,20.2c6.1,0,10.6-2,14.2-5.7c3.7-3.7,4.8-8.8,4.8-12.9
	c0-1.3-0.1-2.5-0.3-3.5H20.7v5.5H34c-0.4,3.1-1.4,5.4-3,7c-1.9,1.9-5,4.1-10.3,4.1c-8.2,0-14.6-6.6-14.6-14.7s6.4-14.7,14.6-14.7
	c4.4,0,7.7,1.7,10,4l3.9-3.9C31.3,265.1,26.9,262.6,20.7,262.6z M54.6,277.1c-7.1,0-13,5.5-13,13.2c0,7.6,5.8,13.2,13,13.2
	s13-5.6,13-13.2S61.7,277.1,54.6,277.1 M54.6,298.3c-3.9,0-7.3-3.3-7.3-8s3.4-8,7.3-8s7.3,3.2,7.3,8C61.9,295,58.5,298.3,54.6,298.3
	 M82.8,277.1c-7.2,0-13,5.5-13,13.2c0,7.6,5.8,13.2,13,13.2c7.1,0,13-5.6,13-13.2S90,277.1,82.8,277.1 M82.8,298.3
	c-3.9,0-7.3-3.3-7.3-8s3.4-8,7.3-8s7.3,3.2,7.3,8C90.1,295,86.8,298.3,82.8,298.3 M110.9,277.1c-6.5,0-12.4,5.7-12.4,13.1
	c0,7.3,5.9,13,12.4,13c3.1,0,5.5-1.4,6.8-3h0.2v1.9c0,5-2.6,7.7-6.9,7.7c-3.5,0-5.6-2.5-6.5-4.6l-5,2.1c1.4,3.5,5.2,7.7,11.5,7.7
	c6.7,0,12.3-4,12.3-13.6V278h-5.4v2.1h-0.2C116.4,278.5,114,277.1,110.9,277.1 M111.4,298.1c-3.9,0-7.2-3.3-7.2-7.9s3.3-8,7.2-8
	c3.9,0,6.9,3.4,6.9,8S115.3,298.1,111.4,298.1 M127.5,264.2h5.7v38.6h-5.7V264.2z M148.5,277.1c-6.8,0-12.5,5.3-12.5,13.2
	c0,7.4,5.6,13.2,13.1,13.2c6.1,0,9.6-3.7,11-5.8l-4.5-3c-1.5,2.2-3.6,3.6-6.5,3.6c-3,0-5.1-1.3-6.4-4l17.7-7.3l-0.6-1.5
	C158.7,282.6,155.3,277.1,148.5,277.1 M141.7,289.9c-0.2-5.1,4-7.7,6.9-7.7c2.3,0,4.3,1.1,4.9,2.8L141.7,289.9z"/>
<g>
	<path class="st4" d="M179.4,303.5h-4.5v-35.1h4.5l12.2,21.4h0.2l12.2-21.4h4.5v35.1H204v-20.8l0.2-5.9H204L193,296h-2.6l-11-19.3
		h-0.2l0.2,5.9V303.5z"/>
	<path class="st4" d="M223.1,278.7c3.3,0,6,0.9,7.9,2.7c1.9,1.8,2.9,4.2,2.9,7.3v14.8h-4.3v-3.3h-0.2c-1.9,2.7-4.3,4.1-7.4,4.1
		c-2.6,0-4.9-0.8-6.6-2.4c-1.8-1.6-2.7-3.5-2.7-5.9c0-2.5,0.9-4.5,2.8-5.9c1.9-1.5,4.4-2.2,7.5-2.2c2.7,0,4.9,0.5,6.6,1.5v-1
		c0-1.6-0.6-2.9-1.9-4c-1.2-1.1-2.7-1.6-4.4-1.6c-2.5,0-4.5,1.1-6,3.2l-4-2.5C215.6,280.3,218.8,278.7,223.1,278.7z M217.3,296.1
		c0,1.2,0.5,2.2,1.5,2.9c1,0.8,2.2,1.2,3.5,1.2c1.9,0,3.6-0.7,5.1-2.1c1.5-1.4,2.2-3.1,2.2-4.9c-1.4-1.1-3.4-1.7-5.9-1.7
		c-1.8,0-3.4,0.4-4.6,1.3C217.9,293.7,217.3,294.8,217.3,296.1z"/>
	<path class="st4" d="M243.5,303.5H239v-24h4.3v3.9h0.2c0.5-1.3,1.4-2.4,2.8-3.3c1.4-0.9,2.8-1.3,4.2-1.3c1.3,0,2.4,0.2,3.3,0.6
		l-1.4,4.4c-0.6-0.2-1.4-0.3-2.6-0.3c-1.7,0-3.2,0.7-4.4,2.1c-1.3,1.4-1.9,3-1.9,4.8V303.5z"/>
	<path class="st4" d="M278.1,303.5h-5.4l-7.5-11.3l-3.7,3.6v7.7H257v-35.1h4.5V290l10.4-10.5h5.8v0.2l-9.4,9.3l9.8,14.3V303.5z"/>
	<path class="st4" d="M290.7,304.3c-3.5,0-6.4-1.2-8.7-3.6c-2.3-2.4-3.4-5.5-3.4-9.2c0-3.7,1.1-6.7,3.3-9.1c2.2-2.4,5.1-3.7,8.5-3.7
		c3.6,0,6.4,1.2,8.5,3.5c2.1,2.3,3.2,5.5,3.2,9.7l0,0.5h-18.9c0.1,2.4,0.8,4.2,2.4,5.7c1.5,1.4,3.3,2.2,5.4,2.2
		c2.9,0,5.1-1.4,6.8-4.3l4,2c-1.1,2-2.6,3.6-4.5,4.8C295.3,303.7,293.2,304.3,290.7,304.3z M283.5,288.6h13.8c-0.1-1.7-0.8-3-2-4.1
		c-1.2-1.1-2.9-1.6-4.9-1.6c-1.7,0-3.2,0.5-4.4,1.6C284.7,285.4,283.9,286.8,283.5,288.6z"/>
	<path class="st4" d="M315,303.9c-2,0-3.6-0.6-4.9-1.8c-1.3-1.2-2-2.9-2-5v-13.4h-4.2v-4.1h4.2v-7.4h4.5v7.4h5.9v4.1h-5.9v12
		c0,1.6,0.3,2.7,0.9,3.3c0.6,0.6,1.3,0.9,2.1,0.9c0.4,0,0.7,0,1.1-0.1c0.3-0.1,0.7-0.2,1-0.3l1.4,4
		C317.9,303.7,316.6,303.9,315,303.9z"/>
	<path class="st4" d="M328.9,271.2c0,0.9-0.3,1.6-0.9,2.3c-0.6,0.6-1.4,0.9-2.3,0.9c-0.9,0-1.6-0.3-2.3-0.9
		c-0.6-0.6-0.9-1.4-0.9-2.3s0.3-1.6,0.9-2.3c0.6-0.6,1.4-0.9,2.3-0.9c0.9,0,1.6,0.3,2.3,0.9C328.6,269.6,328.9,270.3,328.9,271.2z
		 M328,279.5v24h-4.5v-24H328z"/>
	<path class="st4" d="M333.9,279.5h4.3v3.3h0.2c0.7-1.2,1.7-2.2,3.2-2.9c1.4-0.8,2.9-1.2,4.4-1.2c2.9,0,5.2,0.8,6.8,2.5
		c1.6,1.7,2.4,4.1,2.4,7.2v15.1h-4.5v-14.8c-0.1-3.9-2.1-5.9-5.9-5.9c-1.8,0-3.3,0.7-4.5,2.2c-1.2,1.5-1.8,3.2-1.8,5.2v13.3h-4.5
		V279.5z"/>
	<path class="st4" d="M370.8,314.9c-1.3,0-2.6-0.2-3.8-0.5c-1.2-0.3-2.2-0.8-3.2-1.4c-1-0.6-1.8-1.4-2.5-2.2
		c-0.7-0.8-1.2-1.8-1.6-2.8l4.3-1.8c0.5,1.4,1.3,2.5,2.5,3.4c1.2,0.8,2.6,1.3,4.2,1.3c2.5,0,4.4-0.7,5.7-2.2s2.1-3.5,2.1-6.1v-2.3
		h-0.2c-0.8,1.3-2,2.3-3.5,3c-1.5,0.7-3,1.1-4.7,1.1c-3.1,0-5.8-1.2-8.1-3.7c-2.2-2.5-3.3-5.6-3.3-9.1s1.1-6.6,3.3-9.1
		c2.3-2.5,4.9-3.7,8.1-3.7c1.7,0,3.3,0.4,4.7,1.1c1.5,0.7,2.6,1.7,3.5,3h0.2v-3.3h4.3v23c0,3.9-1.1,6.9-3.3,9.1
		C377.4,313.8,374.5,314.9,370.8,314.9z M370.9,300.2c2.2,0,4-0.8,5.4-2.4c1.5-1.6,2.2-3.7,2.2-6.3c0-2.5-0.7-4.6-2.2-6.2
		c-1.4-1.6-3.3-2.5-5.4-2.5c-2.2,0-4,0.8-5.4,2.5s-2.2,3.7-2.2,6.2c0,2.5,0.7,4.6,2.2,6.2C367,299.3,368.8,300.2,370.9,300.2z"/>
	<path class="st4" d="M404.5,289.3v14.2H400v-35.1h12c3,0,5.6,1,7.7,3c2.2,2,3.2,4.5,3.2,7.4c0,3-1.1,5.5-3.2,7.4
		c-2.1,2-4.7,3-7.7,3H404.5z M404.5,272.7V285h7.5c1.8,0,3.3-0.6,4.5-1.8c1.2-1.2,1.8-2.6,1.8-4.3c0-1.6-0.6-3.1-1.8-4.3
		c-1.2-1.2-2.7-1.9-4.5-1.9H404.5z"/>
	<path class="st4" d="M431.6,268.4v35.1h-4.5v-35.1H431.6z"/>
	<path class="st4" d="M445.9,278.7c3.3,0,6,0.9,7.9,2.7c1.9,1.8,2.9,4.2,2.9,7.3v14.8h-4.3v-3.3h-0.2c-1.9,2.7-4.3,4.1-7.4,4.1
		c-2.6,0-4.9-0.8-6.6-2.4c-1.8-1.6-2.7-3.5-2.7-5.9c0-2.5,0.9-4.5,2.8-5.9c1.9-1.5,4.4-2.2,7.5-2.2c2.7,0,4.9,0.5,6.6,1.5v-1
		c0-1.6-0.6-2.9-1.9-4c-1.2-1.1-2.7-1.6-4.4-1.6c-2.5,0-4.5,1.1-6,3.2l-4-2.5C438.4,280.3,441.6,278.7,445.9,278.7z M440.1,296.1
		c0,1.2,0.5,2.2,1.5,2.9c1,0.8,2.2,1.2,3.5,1.2c1.9,0,3.6-0.7,5.1-2.1c1.5-1.4,2.2-3.1,2.2-4.9c-1.4-1.1-3.4-1.7-5.9-1.7
		c-1.8,0-3.4,0.4-4.6,1.3C440.7,293.7,440.1,294.8,440.1,296.1z"/>
	<path class="st4" d="M470.8,303.9c-1.9,0-3.5-0.6-4.9-1.8c-1.3-1.2-2-2.9-2-5v-13.4h-4.2v-4.1h4.2v-7.4h4.5v7.4h10.8V276
		c0-2.4,0.8-4.3,2.3-5.8c1.5-1.5,3.5-2.2,5.9-2.2c1.6,0,3,0.3,4,0.8l-1.2,4c-0.8-0.4-1.7-0.6-2.6-0.6c-1.1,0-2,0.4-2.7,1.2
		s-1.1,1.8-1.1,3.1v3h6.3v4.1h-6.3v19.9h-4.5v-19.9h-10.8v12.1c0,1.4,0.3,2.4,0.9,3c0.6,0.6,1.2,0.9,2,0.9c0.8,0,1.5-0.1,2.2-0.4
		l1.4,4C473.7,303.7,472.3,303.9,470.8,303.9z"/>
	<path class="st4" d="M491.5,291.5c0-3.7,1.2-6.7,3.5-9.2c2.4-2.4,5.3-3.6,8.9-3.6s6.5,1.2,8.8,3.6c2.4,2.4,3.5,5.5,3.5,9.2
		c0,3.7-1.2,6.8-3.5,9.2c-2.3,2.4-5.3,3.6-8.8,3.6s-6.5-1.2-8.9-3.6C492.6,298.2,491.5,295.2,491.5,291.5z M496,291.5
		c0,2.6,0.8,4.7,2.3,6.3c1.5,1.6,3.4,2.4,5.6,2.4s4.1-0.8,5.6-2.4c1.5-1.6,2.3-3.7,2.3-6.3c0-2.5-0.8-4.6-2.3-6.2
		c-1.5-1.6-3.4-2.5-5.6-2.5s-4.1,0.8-5.6,2.5C496.7,286.9,496,288.9,496,291.5z"/>
	<path class="st4" d="M524.3,303.5h-4.5v-24h4.3v3.9h0.2c0.5-1.3,1.4-2.4,2.8-3.3c1.4-0.9,2.8-1.3,4.2-1.3c1.3,0,2.4,0.2,3.3,0.6
		l-1.4,4.4c-0.6-0.2-1.4-0.3-2.6-0.3c-1.7,0-3.2,0.7-4.4,2.1c-1.3,1.4-1.9,3-1.9,4.8V303.5z"/>
	<path class="st4" d="M542.1,303.5h-4.5v-24h4.3v3.3h0.2c0.7-1.2,1.7-2.2,3.2-2.9c1.4-0.8,2.8-1.2,4.2-1.2c1.8,0,3.3,0.4,4.7,1.2
		c1.3,0.8,2.3,1.9,2.9,3.4c2-3.1,4.8-4.6,8.3-4.6c2.8,0,4.9,0.8,6.4,2.5c1.5,1.7,2.3,4.1,2.3,7.3v15h-4.5v-14.3
		c0-2.3-0.4-3.9-1.2-4.9c-0.8-1-2.2-1.5-4.1-1.5c-1.7,0-3.2,0.7-4.4,2.2c-1.2,1.5-1.8,3.2-1.8,5.2v13.3h-4.5v-14.3
		c0-2.3-0.4-3.9-1.2-4.9c-0.8-1-2.2-1.5-4.1-1.5c-1.7,0-3.2,0.7-4.4,2.2c-1.2,1.5-1.8,3.2-1.8,5.2V303.5z"/>
</g>
<text transform="matrix(1 0 0 1 171.3261 303.4966)" class="st5 st6 st7">Marketing Platform                     </text>
</svg>
