<?xml version="1.0" encoding="utf-8"?>
<!-- Generator: Adobe Illustrator 26.2.1, SVG Export Plug-In . SVG Version: 6.00 Build 0)  -->
<svg version="1.1" id="Layer_1" xmlns="http://www.w3.org/2000/svg" xmlns:xlink="http://www.w3.org/1999/xlink" x="0px" y="0px"
	 viewBox="0 2490 4138.4 550" style="enable-background:new 0 0 4038.4 2993.8;" xml:space="preserve">
<style type="text/css">
	.st3{fill:#757575;}
	.st4{display:none;fill:#757575;}
	.st5{font-family:'ProductSans-Regular';}
	.st6{font-size:452.3702px;}
</style>
<path class="st3" d="M191.2,2509.9c-104.4,0-191.2,84-191.2,187.5s86.8,186.5,191.2,186.5c56.3,0,97.9-18.5,131.1-52.6
	c34.2-34.2,44.3-81.3,44.3-119.1c0-12-0.9-23.1-2.8-32.3H191.2v50.8H314c-3.7,28.6-12.9,49.9-27.7,64.6
	c-17.5,17.5-46.2,37.9-95.1,37.9c-75.7,0-134.8-60.9-134.8-135.8s59.1-135.8,134.8-135.8c40.6,0,71.1,15.7,92.3,36.9l36-36
	C289,2533,248.4,2509.9,191.2,2509.9z M504.2,2643.8c-65.6,0-120.1,50.8-120.1,121.9c0,70.2,53.6,121.9,120.1,121.9
	s120.1-51.7,120.1-121.9C624.3,2695.5,569.8,2643.8,504.2,2643.8 M504.2,2839.6c-36,0-67.4-30.5-67.4-73.9s31.4-73.9,67.4-73.9
	s67.4,29.6,67.4,73.9C571.6,2809.1,540.2,2839.6,504.2,2839.6 M764.6,2643.8c-66.5,0-120.1,50.8-120.1,121.9
	c0,70.2,53.6,121.9,120.1,121.9c65.6,0,120.1-51.7,120.1-121.9C884.7,2695.5,831.1,2643.8,764.6,2643.8 M764.6,2839.6
	c-36,0-67.4-30.5-67.4-73.9s31.4-73.9,67.4-73.9s67.4,29.6,67.4,73.9C832,2809.1,801.6,2839.6,764.6,2839.6 M1024.1,2643.8
	c-60,0-114.5,52.6-114.5,121c0,67.4,54.5,120.1,114.5,120.1c28.6,0,50.8-12.9,62.8-27.7h1.8v17.5c0,46.2-24,71.1-63.7,71.1
	c-32.3,0-51.7-23.1-60-42.5l-46.2,19.4c12.9,32.3,48,71.1,106.2,71.1c61.9,0,113.6-36.9,113.6-125.6v-216.1h-49.9v19.4h-1.8
	C1074.9,2656.7,1052.8,2643.8,1024.1,2643.8 M1028.7,2837.7c-36,0-66.5-30.5-66.5-73c0-42.5,30.5-73.9,66.5-73.9
	c36,0,63.7,31.4,63.7,73.9C1092.5,2807.2,1064.8,2837.7,1028.7,2837.7 M1177.4,2524.6h52.6v356.5h-52.6V2524.6z M1371.4,2643.8
	c-62.8,0-115.4,48.9-115.4,121.9c0,68.3,51.7,121.9,121,121.9c56.3,0,88.7-34.2,101.6-53.6l-41.6-27.7c-13.9,20.3-33.2,33.2-60,33.2
	c-27.7,0-47.1-12-59.1-36.9l163.5-67.4l-5.5-13.9C1465.6,2694.6,1434.2,2643.8,1371.4,2643.8 M1308.6,2762
	c-1.8-47.1,36.9-71.1,63.7-71.1c21.2,0,39.7,10.2,45.3,25.9L1308.6,2762z"/>
<g>
	<path class="st3" d="M1694.3,2889.1h-46.1l122.1-323.9h47l122.1,323.9h-46.1l-31.2-87.8h-136.2L1694.3,2889.1z M1792.9,2616.3
		l-52.9,146.1h107.7l-52.9-146.1H1792.9z"/>
	<path class="st3" d="M2056.2,2896.3c-29,0-53.8-11.5-74.6-34.4c-20.5-23.2-30.8-51.1-30.8-83.7c0-32.6,10.2-60.5,30.8-83.7
		c20.8-22.9,45.7-34.4,74.6-34.4c16.3,0,31.1,3.5,44.6,10.4c13.4,6.9,23.8,16.1,31,27.6h1.8l-1.8-30.8v-102.2h41.6v323.9h-39.8
		v-30.8h-1.8c-7.2,11.5-17.6,20.7-31,27.6C2087.3,2892.9,2072.4,2896.3,2056.2,2896.3z M2062.9,2858.3c20.5,0,37.2-7.4,50.2-22.2
		c13.6-14.8,20.4-34.1,20.4-57.9c0-23.2-6.8-42.4-20.4-57.5c-13.3-15.1-30-22.6-50.2-22.6c-19.9,0-36.6,7.5-50.2,22.6
		c-13.6,15.1-20.4,34.2-20.4,57.5c0,23.5,6.8,42.7,20.4,57.5C2026.3,2850.8,2043,2858.3,2062.9,2858.3z"/>
	<path class="st3" d="M2372.3,2889.1h-41.6v-323.9h41.6l112.6,197.2h1.8l112.6-197.2h41.6v323.9h-41.6v-192.3l1.8-54.3h-1.8
		l-101.3,177.8h-24.4l-101.3-177.8h-1.8l1.8,54.3V2889.1z"/>
	<path class="st3" d="M2776.3,2660.2c30.8,0,55,8.2,72.8,24.7c17.8,16.4,26.7,39,26.7,67.6v136.6H2836v-30.8h-1.8
		c-17.2,25.3-40.1,38-68.8,38c-24.4,0-44.9-7.2-61.3-21.7c-16.4-14.5-24.7-32.6-24.7-54.3c0-22.9,8.7-41.2,26-54.7
		c17.3-13.6,40.5-20.4,69.4-20.4c24.7,0,45.1,4.5,61.1,13.6v-9.5c0-14.5-5.7-26.8-17.2-36.9c-11.5-10.1-24.9-15.2-40.3-15.2
		c-23.2,0-41.6,9.8-55.2,29.4l-36.6-23.1C2706.9,2674.7,2736.8,2660.2,2776.3,2660.2z M2722.5,2821.3c0,10.9,4.6,19.9,13.8,27.1
		c9.2,7.2,20,10.9,32.3,10.9c17.5,0,33.1-6.5,46.8-19.5c13.7-13,20.6-28.2,20.6-45.7c-13-10.2-31.1-15.4-54.3-15.4
		c-16.9,0-31,4.1-42.3,12.2S2722.5,2809.2,2722.5,2821.3z"/>
	<path class="st3" d="M2922.9,2667.4h39.8v30.8h1.8c6.3-10.9,16.1-19.9,29.2-27.1c13.1-7.2,26.8-10.9,40.9-10.9
		c27.1,0,48,7.8,62.7,23.3c14.6,15.5,21.9,37.6,21.9,66.3v139.3h-41.6v-136.6c-0.9-36.2-19.2-54.3-54.7-54.3
		c-16.6,0-30.5,6.7-41.6,20.1c-11.2,13.4-16.7,29.5-16.7,48.2v122.6h-41.6V2667.4z"/>
	<path class="st3" d="M3249.9,2660.2c30.8,0,55,8.2,72.8,24.7c17.8,16.4,26.7,39,26.7,67.6v136.6h-39.8v-30.8h-1.8
		c-17.2,25.3-40.1,38-68.8,38c-24.4,0-44.9-7.2-61.3-21.7c-16.4-14.5-24.7-32.6-24.7-54.3c0-22.9,8.7-41.2,26-54.7
		c17.3-13.6,40.5-20.4,69.4-20.4c24.7,0,45.1,4.5,61.1,13.6v-9.5c0-14.5-5.7-26.8-17.2-36.9c-11.5-10.1-24.9-15.2-40.3-15.2
		c-23.2,0-41.6,9.8-55.2,29.4l-36.6-23.1C3180.6,2674.7,3210.4,2660.2,3249.9,2660.2z M3196.1,2821.3c0,10.9,4.6,19.9,13.8,27.1
		c9.2,7.2,20,10.9,32.3,10.9c17.5,0,33.1-6.5,46.8-19.5c13.7-13,20.6-28.2,20.6-45.7c-13-10.2-31.1-15.4-54.3-15.4
		c-16.9,0-31,4.1-42.3,12.2S3196.1,2809.2,3196.1,2821.3z"/>
	<path class="st3" d="M3492.4,2994.1c-12.4,0-24-1.6-34.8-4.8c-10.9-3.2-20.7-7.6-29.6-13.3c-8.9-5.7-16.5-12.5-22.8-20.4
		c-6.3-7.8-11.2-16.6-14.5-26.2l39.4-16.3c4.5,13,12.4,23.4,23.5,31.2c11.2,7.8,24.1,11.8,38.9,11.8c22.6,0,40.3-6.8,52.9-20.4
		c12.7-13.6,19-32.3,19-56.1v-21.3h-1.8c-7.8,11.8-18.5,21-31.9,27.8c-13.4,6.8-28,10.2-43.7,10.2c-29,0-53.8-11.3-74.6-33.9
		c-20.5-23.2-30.8-51.3-30.8-84.1c0-32.9,10.2-60.8,30.8-83.7c20.8-22.9,45.7-34.4,74.6-34.4c15.7,0,30.2,3.4,43.7,10.2
		c13.4,6.8,24,16.1,31.9,27.8h1.8v-30.8h39.8v212.2c0,35.6-10.1,63.5-30.3,83.7C3553.3,2983.8,3526.2,2994.1,3492.4,2994.1z
		 M3493.8,2858.3c20.5,0,37.2-7.4,50.2-22.2c13.6-14.8,20.4-34.1,20.4-57.9c0-23.2-6.8-42.4-20.4-57.5c-13.3-15.1-30-22.6-50.2-22.6
		c-19.9,0-36.6,7.5-50.2,22.6c-13.6,15.1-20.4,34.2-20.4,57.5c0,23.5,6.8,42.7,20.4,57.5C3457.1,2850.8,3473.9,2858.3,3493.8,2858.3
		z"/>
	<path class="st3" d="M3752.1,2896.3c-32.6,0-59.4-11.2-80.5-33.5c-21.1-22.3-31.7-50.5-31.7-84.6c0-33.8,10.2-61.9,30.8-84.4
		c20.5-22.5,46.7-33.7,78.7-33.7c32.9,0,59,10.6,78.5,31.9c19.5,21.3,29.2,51,29.2,89.3l-0.5,4.5h-174.2
		c0.6,21.7,7.8,39.2,21.7,52.5c13.9,13.3,30.5,19.9,49.8,19.9c26.5,0,47.3-13.3,62.4-39.8l37.1,18.1c-10,18.7-23.8,33.3-41.4,43.9
		C3794.4,2891.1,3774.4,2896.3,3752.1,2896.3z M3685.6,2751.6h127.1c-1.2-15.4-7.5-28.1-18.8-38.2c-11.3-10.1-26.5-15.2-45.5-15.2
		c-15.7,0-29.2,4.8-40.5,14.5C3696.7,2722.3,3689.2,2735.3,3685.6,2751.6z"/>
	<path class="st3" d="M3936.6,2889.1H3895v-221.7h39.8v36.2h1.8c4.2-11.8,12.9-21.8,26-30.1c13.1-8.3,26-12.4,38.7-12.4
		c12.1,0,22.3,1.8,30.8,5.4l-12.7,40.3c-5.1-2.1-13.3-3.2-24.4-3.2c-15.7,0-29.3,6.3-40.9,19c-11.6,12.7-17.4,27.4-17.4,44.3V2889.1
		z"/>
</g>
<text transform="matrix(1 0 0 1 1642.6853 2889.1077)" class="st4 st5 st6">Ad Manager</text>
</svg>
