<svg id="chart" width="1000" height="500" viewBox="0 0 1000 500" xmlns="http://www.w3.org/2000/svg">
    <path
        d="M 0,281.9400139958865 C 28.6,272.539748789857 85.80000000000001,264.61352387631047 143,234.93868796573912 C 200.2,205.26385205516777 228.8,138.26390778389356 286,133.5658344430297 C 343.2,128.86776110216587 371.8,188.07335559069483 429,211.44832126141995 C 486.2,234.82328693214507 514.8,218.16132556819252 572,250.44066279665523 C 629.2,282.72000002511794 657.8,397.1268930218982 715,372.8450074037336 C 772.2,348.56312178556897 800.8,138.80685830055847 858,129.03123470583233 C 915.2,119.2556111111062 972.4,284.9797584852488 1001,323.9668894301029"
        fill="none" stroke="#444cf7" stroke-width="4px" />
    <g>
        <circle cx="0" cy="281.9400139958865" r="8" fill="#444cf7" />,
        <circle cx="143" cy="234.93868796573912" r="8" fill="#444cf7" />,
        <circle cx="286" cy="133.5658344430297" r="8" fill="#444cf7" />,
        <circle cx="429" cy="211.44832126141995" r="8" fill="#444cf7" />,
        <circle cx="572" cy="250.44066279665523" r="8" fill="#444cf7" />,
        <circle cx="715" cy="372.8450074037336" r="8" fill="#444cf7" />,
        <circle cx="858" cy="129.03123470583233" r="8" fill="#444cf7" />,
        <circle cx="1001" cy="323.9668894301029" r="8" fill="#444cf7" />
    </g>
</svg>