<?xml version="1.0" encoding="UTF-8"?><svg id="Layer_1" xmlns="http://www.w3.org/2000/svg" viewBox="0 0 839 233"><defs><style>.cls-1{fill:#fff;}.cls-1,.cls-2,.cls-3,.cls-4{stroke-width:6px;}.cls-1,.cls-2,.cls-4{stroke-miterlimit:10;}.cls-1,.cls-3,.cls-4{stroke:#000;}.cls-2{fill:none;stroke:#a3a3a3;}.cls-3{stroke-linejoin:round;}.cls-3,.cls-4{fill:#f7dd32;}</style></defs><path class="cls-2" d="M724.93,9H114.07S3,9,3,119.5s111.07,110.5,111.07,110.5H724.93s111.07,0,111.07-110.5S724.93,9,724.93,9Z"/><path class="cls-1" d="M489,224H114.07S3,224,3,113.5,114.07,3,114.07,3h427.93l-53,221Z"/><path class="cls-4" d="M489,224h235.93s111.07,0,111.07-110.5S724.93,3,724.93,3h-182.93l-53,221Z"/><g><path d="M143.32,144.64V79.52h9.02v27.91h35.41v-27.91h9.11v65.12h-9.11v-29.33h-35.41v29.33h-9.02Z"/><path d="M232.08,145.78c-5.06,0-9.32-.93-12.77-2.8-3.45-1.87-6.08-4.73-7.88-8.59-1.8-3.86-2.71-8.76-2.71-14.71s.9-10.93,2.71-14.76c1.8-3.83,4.43-6.68,7.88-8.54,3.45-1.87,7.7-2.8,12.77-2.8s9.32,.93,12.77,2.8c3.45,1.87,6.06,4.72,7.83,8.54,1.77,3.83,2.66,8.75,2.66,14.76s-.89,10.85-2.66,14.71c-1.77,3.86-4.38,6.73-7.83,8.59-3.45,1.87-7.71,2.8-12.77,2.8Zm0-7.02c3.23,0,5.92-.63,8.07-1.9,2.15-1.27,3.78-3.24,4.89-5.93,1.11-2.69,1.66-6.09,1.66-10.21v-2.09c0-4.18-.55-7.59-1.66-10.25-1.11-2.66-2.74-4.62-4.89-5.89-2.15-1.27-4.84-1.9-8.07-1.9s-5.93,.63-8.12,1.9c-2.18,1.27-3.81,3.23-4.89,5.89-1.08,2.66-1.61,6.08-1.61,10.25v2.09c0,4.11,.54,7.52,1.61,10.21,1.08,2.69,2.71,4.67,4.89,5.93,2.18,1.27,4.89,1.9,8.12,1.9Z"/><path d="M265.68,144.64v-49.93h6.74l.76,7.5h.66c1.27-2.02,2.69-3.67,4.27-4.94,1.58-1.27,3.32-2.2,5.22-2.8,1.9-.6,3.95-.9,6.17-.9,3.23,0,6.01,.65,8.35,1.95,2.34,1.3,4.08,3.53,5.22,6.69h.57c1.2-2.02,2.59-3.66,4.18-4.89,1.58-1.23,3.35-2.17,5.32-2.8,1.96-.63,4.05-.95,6.27-.95,3.04,0,5.7,.52,7.97,1.57,2.28,1.04,4.07,2.75,5.36,5.13,1.3,2.37,1.95,5.55,1.95,9.54v34.84h-8.35v-33.51c0-2.02-.24-3.7-.71-5.03s-1.16-2.36-2.04-3.09c-.89-.73-1.92-1.25-3.09-1.57-1.17-.32-2.42-.47-3.75-.47-2.22,0-4.26,.57-6.12,1.71-1.87,1.14-3.37,2.79-4.51,4.94-1.14,2.15-1.71,4.72-1.71,7.69v29.33h-8.35v-33.51c0-2.02-.25-3.7-.76-5.03-.51-1.33-1.17-2.36-1.99-3.09-.82-.73-1.82-1.25-2.99-1.57-1.17-.32-2.39-.47-3.66-.47-2.28,0-4.38,.57-6.31,1.71-1.93,1.14-3.47,2.79-4.6,4.94-1.14,2.15-1.71,4.72-1.71,7.69v29.33h-8.35Z"/><path d="M367.26,145.78c-4.94,0-9.1-.93-12.48-2.8-3.39-1.87-5.95-4.73-7.69-8.59-1.74-3.86-2.61-8.76-2.61-14.71s.87-10.93,2.61-14.76c1.74-3.83,4.32-6.68,7.74-8.54,3.42-1.87,7.69-2.8,12.82-2.8,4.68,0,8.61,.9,11.77,2.71,3.16,1.8,5.55,4.49,7.17,8.07,1.61,3.58,2.42,8.05,2.42,13.43v3.99h-35.88c.13,3.99,.71,7.26,1.76,9.83,1.04,2.56,2.61,4.43,4.7,5.6,2.09,1.17,4.71,1.76,7.88,1.76,2.15,0,4.03-.27,5.65-.81,1.61-.54,2.97-1.31,4.08-2.33,1.11-1.01,1.95-2.21,2.52-3.61,.57-1.39,.89-2.91,.95-4.56h8.16c-.06,2.66-.57,5.11-1.52,7.36-.95,2.25-2.34,4.16-4.18,5.74-1.84,1.58-4.08,2.82-6.74,3.7-2.66,.89-5.7,1.33-9.11,1.33Zm-13.95-30.28h27.06c0-2.78-.32-5.13-.95-7.03-.63-1.9-1.54-3.45-2.71-4.65-1.17-1.2-2.53-2.07-4.08-2.61-1.55-.54-3.31-.81-5.27-.81-2.91,0-5.38,.54-7.4,1.61-2.03,1.08-3.58,2.72-4.65,4.94-1.08,2.22-1.74,5.06-1.99,8.54Z"/></g><polygon class="cls-3" points="708 156 673.56 156 673.56 121 656.33 121 656.33 156 621.89 156 621.89 87.25 664.94 61 707.7 87.3 708 156"/></svg>