<?xml version="1.0" encoding="utf-8"?>
<!-- Generator: Adobe Illustrator 26.3.1, SVG Export Plug-In . SVG Version: 6.00 Build 0)  -->
<svg version="1.1" id="Layer_1" xmlns="http://www.w3.org/2000/svg" xmlns:xlink="http://www.w3.org/1999/xlink" x="0px" y="0px"
	 viewBox="0 0 1880.6 1554.7" style="enable-background:new 0 0 1880.6 1554.7;" xml:space="preserve">
<style type="text/css">
	.st0{fill:url(#SVGID_1_);}
	.st1{fill:#222126;}
	.st2{fill:url(#SVGID_00000166639550813276305230000001279835791994583207_);}
	.st3{clip-path:url(#SVGID_00000121256311158633118570000007364255304353415863_);filter:url(#filter4281-8);}
	.st4{fill:#807F85;}
	.st5{fill:url(#SVGID_00000130647737608898108460000013699474504475850893_);}
	.st6{fill:#010101;}
	.st7{fill:url(#SVGID_00000141422874052119352390000008088554758733333128_);}
	
		.st8{clip-path:url(#SVGID_00000154416557155170351410000000301427385150583190_);fill:url(#SVGID_00000147194463683441606970000002604995473069193918_);}
	.st9{clip-path:url(#SVGID_00000120544411150727559810000013027790078724693940_);filter:url(#filter4281-8-9);}
</style>
<filter  color-interpolation-filters="sRGB" height="1.6016878" id="filter4281-8-9" width="1.6818392" x="-.34091958" y="-.30084389">
	<feGaussianBlur  stdDeviation="15.692135"></feGaussianBlur>
</filter>
<filter  color-interpolation-filters="sRGB" height="1.6016878" id="filter4281-8" width="1.6818392" x="-.34091958" y="-.30084389">
	<feGaussianBlur  stdDeviation="15.692135"></feGaussianBlur>
</filter>
<g>
	
		<linearGradient id="SVGID_1_" gradientUnits="userSpaceOnUse" x1="3915.2937" y1="-238.0913" x2="3915.2937" y2="-243.0602" gradientTransform="matrix(1 0 0 -1 -2975.2937 1312.3716)">
		<stop  offset="0" style="stop-color:#1F1F1F"/>
		<stop  offset="1" style="stop-color:#BEBEBE"/>
	</linearGradient>
	<path class="st0" d="M674.7,1541.7c-2.1-0.2-13.9,8.3-15.6,8c6.3,3.5,18.6,5.4,42.2,4.9H940h238.7c23.7,0.4,35.9-1.4,42.2-4.9
		c-1.7,0.3-13.5-8.2-15.6-8c-3.4,0.3-31.5,5.4-32.6,5.4l-245.7-3.9l6.3,5.5l-225.9-1.6C706.2,1547.1,678,1542,674.7,1541.7
		L674.7,1541.7z"/>
	<path class="st1" d="M946.5,1526.9l-293.4,11.4c-0.4,4.7,0.9,8.6,6,11.4c1.7,0.3,3.4,0.6,5.5,0.8c3.4,0.3,7.2,0.5,11.6,0.5h264h264
		c4.4,0,8.2-0.2,11.6-0.5c2.1-0.2,3.7-0.5,5.5-0.8c5.1-2.8,6.3-6.6,6-11.4l-281.8-6.4L946.5,1526.9z"/>
</g>
<g transform="translate(-340.00073,-22.000949)">
	
		<linearGradient id="SVGID_00000045591267049847016610000004727319627604148869_" gradientUnits="userSpaceOnUse" x1="1884.9072" y1="250.7407" x2="1884.9072" y2="8.7063" gradientTransform="matrix(1 0 0 -1 -604.9071 1576.001)">
		<stop  offset="0" style="stop-color:#19181D"/>
		<stop  offset="0.3414" style="stop-color:#242328"/>
		<stop  offset="0.6726" style="stop-color:#1E1D22"/>
		<stop  offset="0.7745" style="stop-color:#2C2B30"/>
		<stop  offset="0.9125" style="stop-color:#2E2D32"/>
		<stop  offset="1" style="stop-color:#2E2D32"/>
	</linearGradient>
	<path style="fill:url(#SVGID_00000045591267049847016610000004727319627604148869_);" d="M1280,1269.3l-189.2,5.9
		c1.5,55.4-3.9,117.8-11.6,174.4c-1.6,12-3.2,25.1-6,37.8c-3.7,14.6-9.5,23.8-17.9,30.6c-7,5.6-16,9.4-24.3,14
		c-12.3,6.8-22.5,13.6-29.2,19c-2.8,2.3-6,4.9-8.3,8.1c-0.3,0.5-0.5,1-0.5,1.4c0,1.7,2.5,2.8,4.6,3.6c7,2.3,20,3,35.6,3.2
		c8.4,0.1,18.6-0.1,27.9-0.1h437.6c9.3-0.1,19.5,0.1,27.9,0.1c15.6-0.1,28.6-0.9,35.6-3.2c2.2-0.8,4.6-1.8,4.6-3.6
		c0-0.4-0.1-0.9-0.5-1.4c-2.4-3.2-5.5-5.8-8.3-8.1c-6.7-5.4-16.8-12.2-29.2-19c-8.3-4.7-17.4-8.4-24.3-14
		c-8.3-6.8-14.2-16-17.9-30.6c-2.8-12.7-4.4-25.8-6-37.8c-7.7-56.6-13.1-119-11.6-174.4L1280,1269.3z"/>
</g>
<g>
	<defs>
		<path id="SVGID_00000005244173876114470020000014452826113303430306_" d="M940,1247.3l-189.2,5.9c1.5,55.4-3.9,117.8-11.6,174.4
			c-1.6,12-3.2,25.1-6,37.8c-3.7,14.6-9.5,23.8-17.9,30.6c-7,5.6-16,9.4-24.3,14c-12.3,6.8-22.5,13.6-29.2,19
			c-2.8,2.3-6,4.9-8.3,8.1c-0.3,0.5-0.5,1-0.5,1.4c0,1.7,2.5,2.8,4.6,3.6c7,2.3,20,3,35.6,3.2c8.4,0.1,18.6-0.1,27.9-0.1h437.6
			c9.3-0.1,19.5,0.1,27.9,0.1c15.6-0.1,28.6-0.9,35.6-3.2c2.2-0.8,4.6-1.8,4.6-3.6c0-0.4-0.1-0.9-0.5-1.4c-2.4-3.2-5.5-5.8-8.3-8.1
			c-6.7-5.4-16.8-12.2-29.2-19c-8.3-4.7-17.4-8.4-24.3-14c-8.3-6.8-14.2-16-17.9-30.6c-2.8-12.7-4.4-25.8-6-37.8
			c-7.7-56.6-13.1-119-11.6-174.4L940,1247.3z"/>
	</defs>
	<clipPath id="SVGID_00000018919527732407446780000008639883399362801072_">
		<use xlink:href="#SVGID_00000005244173876114470020000014452826113303430306_"  style="overflow:visible;"/>
	</clipPath>
	<g style="clip-path:url(#SVGID_00000018919527732407446780000008639883399362801072_);filter:url(#filter4281-8);">
		<path class="st4" d="M653.1,1476.1c31.4-4.7,58.2,5.7,82.9,16c-98.9,40.7,65.9,50.5,47.5,64.4c-18.4,13.9-145.1,33.6-163.6,44.1
			l9.6-93.7L653.1,1476.1z"/>
	</g>
</g>
<g transform="translate(879.91218,-22.000949)">
</g>
<g>
	<g transform="translate(-340.00073,-22.000949)">
		<path d="M340,1139.8v45.2v64.7c0,49,18.9,62.3,62.3,62.3h133.5h10.1h1482.4h129.4c43.4,0,62.3-13.3,62.3-62.3v-109.9L340,1139.8z"
			/>
	</g>
	
		<linearGradient id="SVGID_00000039849124295628365140000003054633897584702875_" gradientUnits="userSpaceOnUse" x1="171.4617" y1="352.3928" x2="1773.7581" y2="352.3928" gradientTransform="matrix(1 0 0 -1 0 1554)">
		<stop  offset="0" style="stop-color:#201F24"/>
		<stop  offset="1" style="stop-color:#353439"/>
	</linearGradient>
	<path style="fill:url(#SVGID_00000039849124295628365140000003054633897584702875_);" d="M0,1115.5v45.2v64.7
		c0,49,19,62.3,62.3,62.3h133.5h10.1h1482.9h129.4c43.4,0,62.3-13.3,62.3-62.3v-109.9L0,1115.5z"/>
	<g transform="translate(-340.00073,-22.000949)">
		<g>
			<path class="st6" d="M1280.8,1199.8c1.6,0,4.2-0.6,7.8-1.9c3.6-1.2,6.8-1.9,9.4-1.9c4.4,0,8.3,1.2,11.7,3.5
				c1.9,1.3,3.8,3.2,5.7,5.5c-2.8,2.4-4.9,4.6-6.2,6.4c-2.4,3.4-3.6,7.2-3.6,11.3c0,4.5,1.3,8.6,3.8,12.2c2.5,3.6,5.4,5.9,8.6,6.9
				c-1.3,4.4-3.6,8.9-6.7,13.7c-4.7,7.1-9.4,10.7-14.1,10.7c-1.8,0-4.4-0.6-7.6-1.8c-3.3-1.2-6-1.8-8.2-1.8c-2.2,0-4.8,0.6-7.8,1.8
				s-5.4,1.8-7.2,1.8c-5.6,0-11-4.7-16.4-14.2c-5.4-9.3-8-18.5-8-27.5c0-8.3,2.1-15.2,6.2-20.4c4.1-5.3,9.3-7.9,15.5-7.9
				c2.7,0,5.9,0.6,9.7,1.7C1277.1,1199.2,1279.6,1199.8,1280.8,1199.8L1280.8,1199.8z M1297.5,1177.8c0,2.3-0.5,4.8-1.6,7.5
				c-1.1,2.7-2.8,5.2-5.1,7.5c-2,2-4,3.3-5.9,3.9c-1.2,0.4-3.1,0.7-5.6,0.9c0.1-5.4,1.5-10.1,4.2-14c2.8-3.9,7.3-6.6,13.7-8.1
				c0.1,0.5,0.2,0.9,0.3,1.2C1297.5,1177.1,1297.5,1177.4,1297.5,1177.8L1297.5,1177.8z"/>
		</g>
	</g>
	<g transform="translate(-339.71503,-22.000949)">
		
			<linearGradient id="SVGID_00000082353417639254120150000007215739267766058657_" gradientUnits="userSpaceOnUse" x1="340" y1="580.9219" x2="2220" y2="580.9219">
			<stop  offset="0" style="stop-color:white"/>
			<stop  offset="1" style="stop-color:white"/>
		</linearGradient>
		<path style="fill:url(#SVGID_00000082353417639254120150000007215739267766058657_);" d="M402.3,22C358.9,22,340,35.3,340,84.3
			V149v990.8h1880V149V84.3c0-49-18.9-62.3-62.3-62.3h-133.5h-10.1H531.7L402.3,22z"/>
	</g>
</g>
<g transform="translate(-340.00073,-22.000949)">
</g>
<g transform="translate(-64.536524,2097.3869)">
	<g>
		<defs>
			<path id="SVGID_00000039845733411893407890000012320647050908277905_" d="M402.3,22C358.9,22,340,35.3,340,84.3V149v990.8h1880
				V149V84.3c0-49-18.9-62.3-62.3-62.3h-133.5h-10.1H531.7L402.3,22z"/>
		</defs>
		<clipPath id="SVGID_00000145771598266626874320000005861745038926403756_">
			<use xlink:href="#SVGID_00000039845733411893407890000012320647050908277905_"  style="overflow:visible;"/>
		</clipPath>
		
			<linearGradient id="SVGID_00000174563573934092753730000014598654749308097437_" gradientUnits="userSpaceOnUse" x1="1926.3156" y1="-356.7992" x2="2372.0107" y2="-1946.5977" gradientTransform="matrix(1 0 0 -1 -64.5365 -543.387)">
			<stop  offset="0" style="stop-color:#FFFFFF;stop-opacity:0.1961"/>
			<stop  offset="1" style="stop-color:#FFFFFF;stop-opacity:0"/>
		</linearGradient>
		
			<path style="clip-path:url(#SVGID_00000145771598266626874320000005861745038926403756_);fill:url(#SVGID_00000174563573934092753730000014598654749308097437_);" d="
			M1420.1,9.8l632.5,1414l333.3,21.2l6.4-1511.3L1420.1,9.8z"/>
	</g>
</g>
<g>
	<defs>
		<path id="SVGID_00000010296556517915050160000002571772090143289005_" d="M940,1247.3l189.2,5.9c-1.5,55.4,3.9,117.8,11.6,174.4
			c1.6,12,3.2,25.1,6,37.8c3.7,14.6,9.5,23.8,17.9,30.6c7,5.6,16,9.4,24.3,14c12.3,6.8,22.5,13.6,29.2,19c2.8,2.3,6,4.9,8.3,8.1
			c0.3,0.5,0.5,1,0.5,1.4c0,1.7-2.5,2.8-4.6,3.6c-7,2.3-20,3-35.6,3.2c-8.4,0.1-18.6-0.1-27.9-0.1H721.2c-9.3-0.1-19.5,0.1-27.9,0.1
			c-15.6-0.1-28.6-0.9-35.6-3.2c-2.2-0.8-4.6-1.8-4.6-3.6c0-0.4,0.1-0.9,0.5-1.4c2.4-3.2,5.5-5.8,8.3-8.1c6.7-5.4,16.8-12.2,29.2-19
			c8.3-4.7,17.4-8.4,24.3-14c8.3-6.8,14.2-16,17.9-30.6c2.8-12.7,4.4-25.8,6-37.8c7.7-56.6,13.1-119,11.6-174.4L940,1247.3z"/>
	</defs>
	<clipPath id="SVGID_00000137849477069626733550000003373234050606115505_">
		<use xlink:href="#SVGID_00000010296556517915050160000002571772090143289005_"  style="overflow:visible;"/>
	</clipPath>
	<g style="clip-path:url(#SVGID_00000137849477069626733550000003373234050606115505_);filter:url(#filter4281-8-9);">
		<path class="st4" d="M1226.9,1476.1c-31.4-4.7-58.2,5.7-82.9,16c98.9,40.7-65.9,50.5-47.5,64.4c18.4,13.9,145.1,33.6,163.6,44.1
			l-9.6-93.7L1226.9,1476.1z"/>
	</g>
</g>
</svg>
