<?xml version="1.0" encoding="utf-8"?>
<!-- Generator: Adobe Illustrator 26.3.1, SVG Export Plug-In . SVG Version: 6.00 Build 0)  -->
<svg version="1.1" id="Layer_1" xmlns="http://www.w3.org/2000/svg" xmlns:xlink="http://www.w3.org/1999/xlink" x="0px" y="0px"
	 viewBox="0 0 1880.6 1554.7" style="enable-background:new 0 0 1880.6 1554.7;" xml:space="preserve">
<style type="text/css">
	.st0{fill:url(#SVGID_1_);}
	.st1{fill:#222126;}
	.st2{fill:url(#SVGID_00000151514292800371331600000004114388041465333385_);}
	.st3{clip-path:url(#SVGID_00000177454302350595438060000012242168800798063499_);filter:url(#filter4281-8);}
	.st4{fill:#807F85;}
	.st5{fill:url(#SVGID_00000154422046057132513300000014610040460909880254_);}
	.st6{fill:url(#SVGID_00000087401974916963229010000002324070113219099532_);}
	.st7{fill:#302F34;}
</style>
<filter  color-interpolation-filters="sRGB" height="1.6016878" id="filter4281-8" width="1.6818392" x="-.34091958" y="-.30084389">
	<feGaussianBlur  stdDeviation="15.692135"></feGaussianBlur>
</filter>
<g>
	
		<linearGradient id="SVGID_1_" gradientUnits="userSpaceOnUse" x1="3915.2937" y1="2238.0913" x2="3915.2937" y2="2243.0603" gradientTransform="matrix(1 0 0 1 -2975.2937 -687.6284)">
		<stop  offset="0" style="stop-color:#1F1F1F"/>
		<stop  offset="1" style="stop-color:#BEBEBE"/>
	</linearGradient>
	<path class="st0" d="M674.7,1541.7c-2.1-0.2-13.9,8.3-15.6,8c6.3,3.5,18.6,5.4,42.2,4.9H940h238.7c23.7,0.4,35.9-1.4,42.2-4.9
		c-1.7,0.3-13.5-8.2-15.6-8c-3.4,0.3-31.5,5.4-32.6,5.4l-245.7-3.9l6.3,5.5l-225.9-1.6C706.2,1547.1,678,1542,674.7,1541.7
		L674.7,1541.7z"/>
	<path class="st1" d="M946.5,1526.9l-293.4,11.4c-0.4,4.7,0.9,8.6,6,11.4c1.7,0.3,3.4,0.6,5.5,0.8c3.4,0.3,7.2,0.5,11.6,0.5h264h264
		c4.4,0,8.2-0.2,11.6-0.5c2.1-0.2,3.7-0.5,5.5-0.8c5.1-2.8,6.3-6.6,6-11.4l-281.8-6.4L946.5,1526.9z"/>
</g>
<g transform="translate(-340.00073,-22.000949)">
	
		<linearGradient id="SVGID_00000014612299349692714600000003371683730010773656_" gradientUnits="userSpaceOnUse" x1="2224.8079" y1="1771.2603" x2="2224.8079" y2="2013.2947" gradientTransform="matrix(1 0 0 1 -944.9078 -446)">
		<stop  offset="0" style="stop-color:#19181D"/>
		<stop  offset="0.3414" style="stop-color:#242328"/>
		<stop  offset="0.6726" style="stop-color:#1E1D22"/>
		<stop  offset="0.7745" style="stop-color:#2C2B30"/>
		<stop  offset="0.9125" style="stop-color:#2E2D32"/>
		<stop  offset="1" style="stop-color:#2E2D32"/>
	</linearGradient>
	<path style="fill:url(#SVGID_00000014612299349692714600000003371683730010773656_);" d="M1280,1269.3l-189.2,5.9
		c1.5,55.4-3.9,117.8-11.6,174.4c-1.6,12-3.2,25.1-6,37.8c-3.7,14.6-9.5,23.8-17.9,30.6c-7,5.6-16,9.4-24.3,14
		c-12.3,6.8-22.5,13.6-29.2,19c-2.8,2.3-6,4.9-8.3,8.1c-0.3,0.5-0.5,1-0.5,1.4c0,1.7,2.5,2.8,4.6,3.6c7,2.3,20,3,35.6,3.2
		c8.4,0.1,18.6-0.1,27.9-0.1h437.6c9.3-0.1,19.5,0.1,27.9,0.1c15.6-0.1,28.6-0.9,35.6-3.2c2.2-0.8,4.6-1.8,4.6-3.6
		c0-0.4-0.1-0.9-0.5-1.4c-2.4-3.2-5.5-5.8-8.3-8.1c-6.7-5.4-16.8-12.2-29.2-19c-8.3-4.7-17.4-8.4-24.3-14
		c-8.3-6.8-14.2-16-17.9-30.6c-2.8-12.7-4.4-25.8-6-37.8c-7.7-56.6-13.1-119-11.6-174.4L1280,1269.3z"/>
</g>
<g>
	<g>
		<defs>
			<path id="SVGID_00000160188020640232068520000013701395962201778592_" d="M940,1247.3l-189.2,5.9c1.5,55.4-3.9,117.8-11.6,174.4
				c-1.6,12-3.2,25.1-6,37.8c-3.7,14.6-9.5,23.8-17.9,30.6c-7,5.6-16,9.4-24.3,14c-12.3,6.8-22.5,13.6-29.2,19
				c-2.8,2.3-6,4.9-8.3,8.1c-0.3,0.5-0.5,1-0.5,1.4c0,1.7,2.5,2.8,4.6,3.6c7,2.3,20,3,35.6,3.2c8.4,0.1,18.6-0.1,27.9-0.1h437.6
				c9.3-0.1,19.5,0.1,27.9,0.1c15.6-0.1,28.6-0.9,35.6-3.2c2.2-0.8,4.6-1.8,4.6-3.6c0-0.4-0.1-0.9-0.5-1.4c-2.4-3.2-5.5-5.8-8.3-8.1
				c-6.7-5.4-16.8-12.2-29.2-19c-8.3-4.7-17.4-8.4-24.3-14c-8.3-6.8-14.2-16-17.9-30.6c-2.8-12.7-4.4-25.8-6-37.8
				c-7.7-56.6-13.1-119-11.6-174.4L940,1247.3z"/>
		</defs>
		<clipPath id="SVGID_00000042720989744798137730000012752688236921369752_">
			<use xlink:href="#SVGID_00000160188020640232068520000013701395962201778592_"  style="overflow:visible;"/>
		</clipPath>
		<g style="clip-path:url(#SVGID_00000042720989744798137730000012752688236921369752_);filter:url(#filter4281-8);">
			<path class="st4" d="M653.1,1476.1c31.4-4.7,58.2,5.7,82.9,16c-98.9,40.7,65.9,50.5,47.5,64.4s-145.1,33.6-163.6,44.1l9.6-93.7
				L653.1,1476.1z"/>
		</g>
	</g>
</g>
<g transform="translate(879.91218,-22.000949)">
</g>
<g>
	<g transform="translate(-340.00073,-22.000949)">
		
			<linearGradient id="SVGID_00000147927722384082953940000008769202903771817136_" gradientUnits="userSpaceOnUse" x1="511.4624" y1="1693.9009" x2="2113.7588" y2="1693.9009" gradientTransform="matrix(1 0 0 1 -340.0007 -468.0009)">
			<stop  offset="0" style="stop-color:#201F24"/>
			<stop  offset="1" style="stop-color:#353439"/>
		</linearGradient>
		<path style="fill:#302f34" d="M340,1139.8v45.2v64.7
			c0,49,18.9,62.3,62.3,62.3h133.5h10.1h1482.4h129.4c43.4,0,62.3-13.3,62.3-62.3v-109.9L340,1139.8z"/>
	</g>
	<g transform="translate(-340.00073,-22.000949)">
	</g>
	<g transform="translate(-339.71503,-22.000949)">
		<g>
			
				<linearGradient id="SVGID_00000150064548023779064160000011731250417559039145_" gradientUnits="userSpaceOnUse" x1="696.7152" y1="997.1011" x2="2542.7153" y2="997.1011" gradientTransform="matrix(1 0 0 -1 -339.715 1578.001)">
				<stop  offset="0" style="stop-color:#FFFFFF"/>
				<stop  offset="1" style="stop-color:#FFFFFF"/>
			</linearGradient>
			<path style="fill:url(#SVGID_00000150064548023779064160000011731250417559039145_);" d="M357,1122.8V84.3
				c0-19,3.1-31.2,9.5-37.1c6-5.6,17.4-8.2,35.8-8.2h1755.4c18.4,0,29.8,2.6,35.8,8.2c6.4,5.9,9.5,18.1,9.5,37.1v1038.5H357z"/>
			<path class="st7" d="M2157.7,56c20.1,0,24.1,3.5,24.3,3.7c0,0,4,4.3,4,24.6V149v956.8H374V149V84.3c0-20.3,4-24.6,4-24.6
				c0.2-0.1,4.2-3.7,24.3-3.7h129.4h1482.4h10.1H2157.7 M2157.7,22h-133.5h-10.1H531.7H402.3C358.9,22,340,35.3,340,84.3V149v990.8
				h1880V149V84.3C2220,35.3,2201.1,22,2157.7,22L2157.7,22z"/>
		</g>
	</g>
</g>
</svg>
