<?xml version="1.0" encoding="UTF-8"?>
<svg width="752pt" height="752pt" version="1.1" viewBox="0 0 752 752" xmlns="http://www.w3.org/2000/svg">
<style type="text/css">
	.cell3{fill:#4285F4;}
    .arrow{fill:#757575;} 
    .cell2{fill:#FBBC05;} 
    .cell4{fill:#EA4335;} 
    .cell1{fill:#34A853;}
    .line1{fill:#757575;}
    .line2{fill:#757575;}
</style>
 <g>
  <path class="cell3" d="m556.11 295.64c1.4336-6.457-0.71875-12.914-5.0234-17.223-34.441-40.898-82.52-68.883-134.9-78.211-6.457-1.4336-12.199 0.71875-17.223 5.0234-5.0234 4.3047-7.8945 10.047-7.8945 16.504v62.426c0 10.047 6.457 17.938 15.785 20.809 22.242 5.7422 42.336 17.223 58.121 33.727 4.3047 4.3047 9.3281 6.457 15.07 6.457 3.5859 0 7.1758-0.71875 10.762-2.8711l53.816-31.57c6.4609-2.8711 10.766-8.6133 11.484-15.07z"/>
  <path class="arrow" d="m449.91 351.61c-2.1523-2.1523-5.0234-2.8711-7.8945-1.4336-20.809 7.8945-88.977 35.16-98.305 44.488-17.223 17.223-17.223 45.922 0 63.145 17.223 17.223 45.922 17.223 63.145 0 9.3281-9.3281 36.594-77.496 44.488-98.305 1.4336-2.8711 0.71875-5.7422-1.4336-7.8945zm-66.734 81.801c-3.5859 3.5859-10.047 3.5859-13.633 0-3.5859-3.5859-3.5859-10.047 0-13.633 3.5859-3.5859 10.047-3.5859 13.633 0 3.5898 3.5859 3.5898 9.3281 0 13.633z"/>
  <path class="cell2" d="m360.93 284.16v-62.426c0-6.457-2.8711-12.199-7.8945-16.504-5.0234-4.3047-11.48-5.7422-17.223-5.0234-52.383 9.3281-100.46 37.312-134.9 78.211-4.3047 5.0234-6.457 11.48-5.0195 17.223 1.4336 6.457 5.0234 11.48 10.762 15.07l53.816 31.57c3.5859 2.1523 7.1758 2.8711 10.762 2.8711 5.7422 0 10.762-2.1523 15.07-6.457 15.785-16.504 36.594-27.984 58.121-33.727 10.047-2.1523 16.504-10.766 16.504-20.809z"/>
  <path class="cell4" d="m591.98 348.02c-2.1523-5.7422-6.457-10.762-12.914-12.914-5.7422-2.1523-12.914-1.4336-17.938 1.4336l-54.539 32.289c-8.6094 5.0234-12.914 15.07-10.047 24.398 6.457 21.527 6.457 45.207 0 67.449-2.8711 9.3281 1.4336 19.375 10.047 24.398l53.816 31.57c5.7422 2.8711 12.199 3.5859 17.938 1.4336 5.7422-2.1523 10.762-7.1758 12.914-12.914 18.66-50.945 18.66-106.2 0.72266-157.14z"/>
  <path class="cell1" d="m245.41 368.82-54.535-31.57c-5.7422-2.8711-12.199-3.5859-17.938-1.4336-5.7422 2.1523-10.762 7.1758-12.914 12.914-18.656 50.227-18.656 106.2 0 156.43 2.1523 5.7422 7.1758 10.762 12.914 12.914 5.7422 2.1523 12.914 1.4336 17.938-1.4336l54.535-30.855c8.6094-5.0234 12.914-15.07 10.047-24.398-6.457-22.242-6.457-45.207 0-67.449 2.1523-10.762-2.1523-20.805-10.047-25.113z"/>
  <path class="line1" d="m324.34 497.27c-4.3047 0-7.1758 2.8711-7.1758 7.1758 0 4.3047 2.8711 7.1758 7.1758 7.1758h104.04c4.3047 0 7.1758-2.8711 7.1758-7.1758 0-4.3047-2.8711-7.1758-7.1758-7.1758z"/>
  <path class="line2" d="m452.06 537.45h-152.12c-4.3047 0-7.1758 2.8711-7.1758 7.1758s2.8711 7.1758 7.1758 7.1758h152.12c4.3047 0 7.1758-2.8711 7.1758-7.1758s-3.5898-7.1758-7.1758-7.1758z"/>
 </g>
</svg>
