<?xml version="1.0" encoding="UTF-8" standalone="no"?>
<svg version="1.1" xmlns="http://www.w3.org/2000/svg" xmlns:xlink="http://www.w3.org/1999/xlink" width="893.44" height="469.12">
	<g id="dp_dp001" transform="matrix(1,0,0,1,-131.933,-476.401)">
		<path id="dp_path002" fill="#7a7a7a" fill-rule="evenodd" stroke="none" stroke-width="0" d="M 373.799,877.567 L 363.713,877.539 L 363.713,879.055 L 365.601,882.373 C 366.269,883.197 366.923,883.997 367.56,884.772 L 373.873,884.772 L 373.873,877.713 L 373.871,877.716 Z M 368.811,867.176 L 365.859,873.325 L 371.771,873.341 Z M 373.873,856.631 L 370.688,863.264 L 373.873,869.897 Z M 363.713,856.559 L 363.713,869.969 L 366.932,863.264 Z M 365.355,852.155 L 368.811,859.352 L 372.256,852.175 Z M 315.987,824.268 L 348.523,824.268 L 348.523,857.151 L 342.451,854.759 C 340.535,851.86 338.208,848.985 335.453,846.131 C 335.561,848.288 335.636,850.517 335.675,852.772 L 335.148,852.745 L 335.148,832.325 L 315.987,832.325 Z M 368.931,840.368 L 365.297,847.936 L 372.573,847.955 Z M 373.873,830.075 L 370.809,836.456 L 373.873,842.839 Z M 363.713,829.5 L 363.713,843.412 L 367.053,836.456 Z M 364.956,824.268 L 368.931,832.545 L 372.904,824.268 Z M 244.971,798.795 L 244.969,798.071 C 244.593,798.312 244.219,798.553 243.843,798.795 Z M 224.885,797.483 L 224.889,798.795 L 222.84,798.795 C 223.523,798.359 224.204,797.921 224.885,797.483 Z M 252.803,798.795 L 252.787,792.909 C 250.809,794.244 248.819,795.564 246.816,796.872 C 246.844,796.853 246.873,796.835 246.901,796.817 L 246.907,798.795 Z M 173.913,807.252 L 182.029,807.252 L 181.987,796.773 C 180.873,797.025 179.639,797.175 178.268,797.185 C 178.207,797.185 178.148,797.185 178.091,797.189 C 176.549,797.196 175.177,797.032 173.956,796.744 Z M 226.731,796.284 C 230.813,793.621 234.843,790.901 238.816,788.123 L 238.845,798.697 C 238.793,798.729 238.741,798.761 238.691,798.795 L 226.823,798.795 L 226.816,796.229 C 226.788,796.247 226.759,796.265 226.731,796.284 Z M 184.821,807.252 L 186.035,807.252 L 186.035,798.795 L 188.824,798.795 L 188.643,793.129 L 188.637,793.135 C 187.647,794.125 186.387,795.095 184.775,795.836 Z M 167.304,793.012 L 167.309,793.017 C 168.291,794.023 169.548,795.013 171.167,795.776 L 171.12,807.252 L 166.849,807.252 Z M 266.76,798.795 L 266.717,783.115 C 266.352,783.381 265.988,783.647 265.623,783.913 L 266.051,798.795 Z M 272.887,798.795 L 272.832,778.548 C 271.444,779.603 270.049,780.651 268.647,781.691 L 268.693,798.795 Z M 240.776,797.472 L 240.747,786.765 C 244.808,783.892 248.808,780.957 252.747,777.961 L 252.777,789.549 C 248.828,792.245 244.828,794.887 240.776,797.472 Z M 280.759,814.436 L 280.644,772.456 C 278.673,774.031 276.685,775.589 274.683,777.132 C 274.709,777.111 274.735,777.091 274.761,777.072 L 274.82,798.795 L 278.419,798.795 L 278.419,814.436 Z M 372.56,814.436 L 373.873,814.436 L 373.873,767.881 L 372.433,767.881 Z M 367.252,814.436 L 370.628,814.436 L 370.501,767.881 L 367.377,767.881 Z M 363.713,814.436 L 365.319,814.436 L 365.444,767.881 L 363.713,767.881 Z M 286.885,814.436 L 286.759,767.468 C 286.76,767.467 286.763,767.464 286.763,767.464 C 285.375,768.619 283.977,769.764 282.573,770.903 L 282.692,814.436 Z M 265.525,780.503 L 265.212,769.625 L 265.212,768.089 C 265.7,767.687 266.187,767.284 266.673,766.88 L 266.708,779.629 C 266.313,779.92 265.92,780.212 265.525,780.503 Z M 289.312,796.928 L 289.312,814.436 L 288.82,814.436 L 288.688,765.853 C 290.667,764.184 292.627,762.499 294.569,760.796 L 294.699,808.696 L 294.092,809.405 L 294.092,796.928 Z M 268.637,778.188 L 268.603,765.265 C 272.717,761.797 276.752,758.253 280.705,754.631 C 280.669,754.664 280.632,754.697 280.596,754.732 L 280.635,768.828 C 276.701,772.015 272.701,775.133 268.637,778.188 Z M 296.628,806.444 L 296.499,759.092 C 298.321,757.471 300.128,755.833 301.917,754.181 C 301.508,754.56 301.096,754.941 300.681,755.32 L 300.807,801.807 L 300.597,801.807 Z M 308.657,808.839 L 308.492,747.959 C 306.503,749.885 304.492,751.791 302.46,753.677 C 302.512,753.631 302.561,753.585 302.611,753.539 L 302.743,801.929 Z M 282.564,767.255 L 282.525,752.952 C 282.476,752.997 282.427,753.044 282.375,753.089 C 286.515,749.249 290.564,745.324 294.516,741.308 L 294.559,757.005 C 290.636,760.496 286.636,763.912 282.564,767.255 Z M 314.789,810.837 L 314.601,741.896 C 313.219,743.299 311.825,744.692 310.421,746.075 L 310.597,810.837 Z M 444.16,743.261 L 444.16,741.515 C 444.083,741.437 444.007,741.36 443.932,741.284 L 443.927,743.261 Z M 441.992,743.261 L 442.003,739.311 C 442.009,739.317 442.016,739.325 442.024,739.333 C 442.016,739.325 442.009,739.316 442.003,739.309 L 442.003,739.311 C 441.901,739.207 441.801,739.103 441.701,738.999 L 441.701,743.261 Z M 416.024,738.732 L 420.095,738.732 C 418.729,737.309 417.376,735.877 416.036,734.433 Z M 322.629,814.436 L 322.409,733.711 C 320.475,735.803 318.513,737.873 316.531,739.921 L 316.732,814.436 Z M 409.316,743.261 L 414.077,743.261 L 414.107,732.339 C 412.319,730.384 410.555,728.409 408.812,726.415 C 408.992,726.624 409.175,726.832 409.36,727.041 Z M 328.756,814.436 L 328.519,726.932 C 328.703,726.721 328.885,726.513 329.067,726.304 C 327.508,728.088 325.932,729.856 324.339,731.608 L 324.564,814.436 Z M 296.489,755.273 L 296.445,739.335 C 300.74,734.903 304.921,730.364 308.981,725.717 C 308.8,725.927 308.619,726.135 308.433,726.344 L 308.481,743.971 C 304.571,747.821 300.573,751.588 296.489,755.273 Z M 441.443,738.732 C 437.343,734.484 433.349,730.137 429.467,725.693 C 429.648,725.903 429.829,726.111 430.015,726.32 L 429.981,738.732 Z M 372.407,758.047 L 373.873,758.047 L 373.873,724.229 L 372.315,724.229 Z M 370.475,758.047 L 370.383,724.229 L 367.496,724.229 L 367.404,758.047 Z M 363.713,758.047 L 365.471,758.047 L 365.563,724.229 L 363.713,724.229 Z M 401.869,811.548 L 403.181,811.548 L 403.181,743.261 L 407.381,743.261 L 407.432,724.827 C 405.637,722.748 403.867,720.648 402.121,718.527 Z M 336.587,814.436 L 336.324,717.723 C 334.395,720.081 332.435,722.412 330.447,724.716 L 330.691,814.436 Z M 395.173,811.545 L 399.936,811.547 L 400.195,716.163 C 398.591,714.179 397.008,712.175 395.449,710.153 Z M 342.712,814.436 L 342.429,710.043 C 341.053,711.825 339.66,713.593 338.251,715.347 L 338.52,814.436 Z M 310.411,742.056 L 310.361,724.129 C 314.484,719.355 318.48,714.464 322.344,709.455 L 322.399,729.484 C 318.505,733.769 314.508,737.96 310.411,742.056 Z M 428.047,738.732 L 428.087,724.105 C 423.964,719.331 419.968,714.44 416.104,709.432 L 416.048,730.216 C 418.677,733.097 421.355,735.936 424.079,738.732 Z M 387.912,811.543 L 393.24,811.545 L 393.521,707.632 C 391.721,705.255 389.952,702.852 388.213,700.423 Z M 344.647,814.436 L 348.523,814.436 L 348.523,811.764 L 350.253,811.764 L 350.253,759.896 L 350.396,759.896 L 350.232,699.519 C 348.309,702.217 346.351,704.885 344.357,707.523 Z M 352.207,714.849 L 352.987,714.849 L 352.987,695.587 C 352.711,695.985 352.433,696.384 352.157,696.783 Z M 386.029,759.896 L 386.12,759.896 L 386.288,697.704 C 385.721,696.896 385.159,696.087 384.6,695.275 L 384.6,714.849 L 386.029,714.849 Z M 324.327,727.34 L 324.272,706.935 C 328.424,701.449 332.419,695.825 336.249,690.057 L 336.312,713.187 C 332.439,718.016 328.443,722.732 324.327,727.34 Z M 414.119,728.085 L 414.176,706.911 C 410.024,701.425 406.029,695.801 402.199,690.033 L 402.133,714.004 C 406.005,718.808 410.003,723.501 414.119,728.085 Z M 372.288,714.395 L 374.081,714.395 L 374.081,686.08 L 372.212,686.08 Z M 370.356,714.395 L 370.279,686.08 L 367.6,686.08 L 367.523,714.395 Z M 363.505,714.395 L 365.589,714.395 L 365.667,686.08 L 363.505,686.08 Z M 265.212,764.403 C 301.676,733.929 332.071,697.441 354.032,653.851 L 354.032,641.229 L 356.553,640.776 L 356.553,636.947 L 359.635,636.947 L 359.635,640.701 L 362.323,640.931 L 362.325,644.788 L 375.261,644.788 L 375.264,640.931 L 377.952,640.701 L 377.952,636.947 L 381.033,636.947 L 381.033,640.776 L 383.553,641.229 L 383.553,652.1 C 399.504,684.229 420.017,712.527 444.16,737.42 L 444.16,620.191 L 448.087,620.191 L 448.087,612.771 L 480.091,612.771 L 480.091,620.191 L 484.019,620.191 L 484.019,690.208 L 488.652,690.208 L 488.652,694.737 L 490.995,694.737 L 490.995,644.915 L 529.107,644.915 L 529.107,728.959 L 538.507,720.227 L 547.303,728.397 L 547.303,721.021 L 568.976,721.021 L 574.021,677.095 L 576.756,579.129 L 591.825,584 L 611.415,578.079 L 611.415,554.009 L 614.333,554.009 L 614.333,591.273 L 617.332,592.243 L 618.46,673.025 L 626.179,673.025 L 626.179,657.905 L 635.189,657.905 L 635.189,644.379 L 650.947,644.379 L 655.308,645.968 C 656.237,587.904 658.744,530.677 666.048,478.097 C 678.3,475.877 690.553,475.795 702.807,478.097 C 709.415,525.707 712.095,577.127 713.236,629.528 L 729.367,629.417 L 729.367,624.788 L 773.849,624.788 L 773.849,630.649 L 785.852,630.649 L 785.852,685.247 L 790.051,685.247 L 790.051,550.983 L 810.567,550.983 L 810.567,542.991 L 814.48,542.991 L 814.48,549.751 L 816.357,548.98 L 816.357,542.991 L 820.271,542.991 L 820.271,547.373 L 837.145,540.445 L 837.145,588.273 L 843.232,588.273 L 853.18,502.845 L 856.285,502.845 L 856.859,502.845 L 866.807,588.273 L 878.675,588.273 L 878.675,638.604 L 886.457,638.604 L 886.457,625.76 L 930.94,625.76 L 930.94,638.604 L 942.943,638.604 L 942.943,783.332 L 947.817,783.332 L 947.817,778.443 L 958.255,778.443 L 958.255,783.332 L 958.379,783.332 L 958.379,693.996 L 972.911,693.937 L 973.011,690.208 L 983.397,690.199 L 983.363,679.017 L 985.523,678.989 L 985.444,661.984 L 987.593,659.852 L 989.608,659.837 L 989.628,699.915 L 993.772,699.895 L 993.783,659.799 L 995.619,659.795 L 997.936,661.848 L 997.989,678.924 L 1000.02,678.9 L 1000.02,690.208 L 1010.29,690.208 L 1010.49,693.996 L 1020.84,693.996 L 1020.84,893.3 L 1024.57,893.3 L 1024.57,944.88 L 132.6,944.88 L 132.6,893.3 L 132.6,877.156 C 134.752,875.34 137.092,873.645 139.641,872.101 C 147.011,859.068 151.355,852.344 156.211,848.836 L 156.211,824.268 L 132.6,824.268 L 132.6,814.436 L 156.211,814.436 L 156.211,807.252 L 164.049,807.252 L 164.62,789.379 C 164.616,789.373 164.613,789.368 164.611,789.364 C 164.608,789.361 164.608,789.361 164.608,789.361 L 162.437,789.361 L 162.437,786.253 L 163.824,786.253 L 163.824,775.059 L 163.708,775.056 L 177.972,768.537 L 192.117,775.056 L 192.117,775.059 L 192.117,786.253 L 193.505,786.253 L 193.505,789.361 L 191.452,789.361 C 191.412,789.425 191.372,789.493 191.329,789.564 L 191.624,798.795 L 217.668,798.795 C 230.413,790.797 242.667,782.263 254.357,773.159 L 254.459,769.625 L 254.459,761.764 L 256.34,761.764 L 256.34,751.924 L 259.835,748.645 L 259.835,748.643 L 263.329,751.921 L 263.329,761.764 L 265.212,761.764 Z M 365.693,676.248 L 365.695,675.715 C 365.589,675.892 365.484,676.069 365.379,676.248 Z M 370.252,676.248 L 370.241,672.493 C 369.793,671.715 369.348,670.935 368.908,670.152 C 368.487,670.896 368.063,671.64 367.637,672.381 L 367.627,676.248 Z M 338.239,710.764 L 338.175,687.127 C 342.371,680.664 346.364,674.025 350.144,667.205 L 350.219,694.577 C 346.376,700.107 342.38,705.501 338.239,710.764 Z M 400.207,711.592 L 400.273,687.103 C 396.077,680.64 392.084,674.001 388.304,667.181 L 388.227,695.5 C 392.069,700.996 396.065,706.359 400.207,711.592 Z M 375.181,675.339 C 375.2,675.371 375.22,675.404 375.24,675.437 L 375.252,658.379 C 374.204,660.42 373.137,662.447 372.053,664.457 C 372.087,664.395 372.121,664.333 372.153,664.272 L 372.169,670.184 C 373.159,671.913 374.164,673.631 375.181,675.339 Z M 352.144,691.775 C 352.425,691.36 352.705,690.944 352.987,690.529 L 352.987,677.499 L 354.032,677.499 L 354.032,659.984 C 353.351,661.285 352.663,662.58 351.968,663.869 C 352.001,663.807 352.036,663.745 352.068,663.684 Z M 386.301,692.717 L 386.38,663.661 C 385.423,661.885 384.48,660.099 383.553,658.3 L 383.553,677.499 L 384.6,677.499 L 384.6,690.207 C 385.163,691.045 385.731,691.883 386.301,692.717 Z M 362.347,675.811 C 363.484,673.912 364.605,672 365.709,670.073 L 365.725,664.383 C 364.573,662.245 363.443,660.092 362.335,657.921 Z M 368.909,664.356 C 370.661,661.149 372.367,657.905 374.025,654.62 L 363.797,654.62 C 365.453,657.905 367.157,661.151 368.909,664.356 Z "/>
		<path id="dp_path003" fill="#3d3d3d" fill-rule="evenodd" stroke="none" stroke-width="0" d="M 345.953,885.929 C 344.665,886.599 343.409,886.984 340.848,887.781 C 342.38,887.703 344.169,887.719 345.953,887.837 Z M 348.523,884.143 C 348.509,884.207 348.497,884.272 348.484,884.337 C 348.26,884.492 348.051,884.637 347.851,884.772 L 348.523,884.772 Z M 373.799,877.567 L 363.713,877.539 L 363.713,884.772 L 373.873,884.772 L 373.873,877.713 L 373.871,877.716 Z M 368.811,867.176 L 365.859,873.325 L 371.771,873.341 Z M 373.873,856.631 L 370.688,863.264 L 373.873,869.897 Z M 363.713,856.559 L 363.713,869.969 L 366.932,863.264 Z M 365.355,852.155 L 368.811,859.352 L 372.256,852.175 Z M 368.931,840.368 L 365.297,847.936 L 372.573,847.955 Z M 373.873,830.075 L 370.809,836.456 L 373.873,842.839 Z M 363.713,829.5 L 363.713,843.412 L 367.053,836.456 Z M 364.956,824.268 L 368.931,832.545 L 372.904,824.268 Z M 224.931,814.436 L 224.92,810.321 C 222.967,811.451 221.004,812.568 219.031,813.676 L 219.032,814.436 Z M 231.057,814.436 L 231.036,806.727 C 231.081,806.699 231.128,806.672 231.172,806.645 C 229.737,807.503 228.296,808.353 226.851,809.199 L 226.864,814.436 Z M 210.973,814.436 L 210.951,806.139 C 210.996,806.112 211.043,806.085 211.087,806.057 C 207.085,808.449 203.037,810.795 198.945,813.088 L 198.949,814.436 Z M 500.536,814.436 L 503.487,814.436 L 503.487,804.811 C 502.499,804.209 501.516,803.607 500.536,803.001 Z M 238.888,814.436 L 238.853,801.951 C 236.903,803.168 234.94,804.373 232.967,805.565 L 232.991,814.436 Z M 245.013,814.436 L 244.969,798.071 C 243.58,798.967 242.185,799.856 240.785,800.74 L 240.823,814.436 Z M 224.885,797.483 L 224.912,807.165 C 220.952,809.48 216.949,811.748 212.907,813.969 L 212.881,804.977 C 216.931,802.532 220.932,800.035 224.885,797.483 Z M 252.845,814.436 L 252.787,792.909 C 250.809,794.244 248.819,795.564 246.816,796.872 C 246.844,796.853 246.873,796.835 246.901,796.817 L 246.948,814.436 Z M 226.731,796.284 C 230.813,793.621 234.843,790.901 238.816,788.123 L 238.845,798.697 C 234.891,801.192 230.889,803.636 226.843,806.031 L 226.816,796.229 C 226.788,796.247 226.759,796.265 226.731,796.284 Z M 504.729,796.291 L 504.729,791.611 C 503.324,790.656 501.927,789.695 500.536,788.728 L 500.536,799.752 C 501.516,800.365 502.5,800.976 503.487,801.584 L 503.487,796.291 Z M 258.972,814.436 L 258.901,788.711 C 257.513,789.68 256.119,790.643 254.717,791.599 L 254.779,814.436 Z M 266.801,814.436 L 266.717,783.115 C 264.769,784.541 262.808,785.955 260.832,787.353 L 260.905,814.436 Z M 272.928,814.436 L 272.832,778.548 C 271.444,779.603 270.049,780.651 268.647,781.691 L 268.736,814.436 Z M 240.776,797.472 L 240.747,786.765 C 244.808,783.892 248.808,780.957 252.747,777.961 L 252.777,789.549 C 248.828,792.245 244.828,794.887 240.776,797.472 Z M 280.759,814.436 L 280.644,772.456 C 278.673,774.031 276.685,775.589 274.683,777.132 C 274.709,777.111 274.735,777.091 274.761,777.072 L 274.863,814.436 Z M 254.708,788.221 L 254.676,776.484 C 254.649,776.503 254.624,776.524 254.597,776.544 C 258.693,773.391 262.719,770.169 266.673,766.88 L 266.708,779.629 C 262.767,782.553 258.765,785.417 254.708,788.221 Z M 372.56,814.436 L 373.873,814.436 L 373.873,767.881 L 372.433,767.881 Z M 367.252,814.436 L 370.628,814.436 L 370.501,767.881 L 367.377,767.881 Z M 363.713,814.436 L 365.319,814.436 L 365.444,767.881 L 363.713,767.881 Z M 286.885,814.436 L 286.759,767.468 C 286.76,767.467 286.763,767.464 286.763,767.464 C 285.375,768.619 283.977,769.764 282.573,770.903 L 282.692,814.436 Z M 815.544,760.097 L 823.225,760.097 L 831.336,690.44 L 831.336,588.273 L 843.232,588.273 L 853.18,502.845 L 856.285,502.845 L 856.859,502.845 L 866.807,588.273 L 878.675,588.273 L 878.675,690.193 L 887.36,764.781 C 887.395,764.775 887.431,764.768 887.468,764.763 L 887.468,751.908 L 891.003,751.908 L 891.003,725.115 L 894.153,725.115 L 894.153,723.715 L 900.253,715.436 L 904.785,715.405 L 914.535,715.405 L 919.067,715.436 L 925.167,723.715 L 925.167,725.115 L 928.319,725.115 L 928.319,751.908 L 931.852,751.908 L 931.852,796.423 L 933.505,796.423 L 933.505,783.332 L 947.817,783.332 L 947.817,778.443 L 958.255,778.443 L 958.255,783.332 L 962.445,783.332 L 962.445,815.185 L 966.377,815.185 L 966.377,790.021 L 974.869,782.047 L 974.869,767.009 L 977.515,767.009 L 977.515,781.472 L 986.005,790.021 L 986.005,808.204 L 1011.61,808.204 L 1011.61,842.743 L 1018.64,842.743 L 1018.64,893.3 L 1024.57,893.3 L 1024.57,944.88 L 132.6,944.88 L 132.6,893.3 L 172.421,893.3 C 171.811,892.275 171.411,891.251 171.108,890.227 C 177.809,888.903 179.653,888.991 181.823,888.983 C 178.923,888.5 172.739,886.84 167.629,882.889 C 176.037,872.107 187.448,854.772 196.503,834.275 C 196.968,855.025 194.384,878.979 191.596,888.748 L 193.748,888.748 C 197.212,881.181 198.617,855.111 197.601,834.097 C 212.517,850.26 217.484,866.88 214.027,884.445 C 210.497,887.019 209.504,887.324 204.401,888.983 C 208.288,888.775 213.479,889.073 217.3,889.936 C 216.6,891.125 216.007,892.248 215.388,893.3 L 317.409,893.3 C 315.672,891.775 314.905,890.249 314.435,888.725 C 319.751,887.721 321.213,887.788 322.935,887.781 C 320.633,887.416 315.728,886.156 311.675,883.157 C 318.345,874.975 327.397,861.82 334.583,846.265 C 334.951,862.013 332.9,880.189 330.689,887.604 L 332.396,887.604 C 335.144,881.861 336.26,862.077 335.453,846.131 C 342.6,853.537 346.868,861.072 348.523,868.815 L 348.523,824.268 L 132.6,824.268 L 132.6,814.436 L 190.889,814.436 C 260.709,776.479 318.445,724.489 354.032,653.851 L 354.032,641.229 L 356.553,640.776 L 356.553,636.947 L 359.635,636.947 L 359.635,640.701 L 362.323,640.931 L 362.325,644.788 L 375.261,644.788 L 375.264,640.931 L 377.952,640.701 L 377.952,636.947 L 381.033,636.947 L 381.033,640.776 L 383.553,641.229 L 383.553,652.1 C 400.765,686.771 423.291,716.977 449.952,743.261 L 450.132,743.261 L 450.132,694.737 L 462.019,694.737 L 462.019,690.208 L 488.652,690.208 L 488.652,694.737 L 500.536,694.737 L 500.536,785.316 C 502.151,786.452 503.775,787.58 505.409,788.699 L 507.043,787.067 L 512.428,787.067 L 512.428,740.991 L 516.153,740.991 L 538.507,720.227 L 560.86,740.991 L 564.584,740.991 L 564.584,785.372 L 564.857,785.099 L 567.493,785.099 L 568.509,786.113 L 568.509,787.067 L 572.141,787.067 L 572.141,727.64 L 611.863,727.64 L 611.863,673.025 L 626.179,673.025 L 626.179,657.905 L 635.189,657.905 L 635.189,644.379 L 650.947,644.379 L 668.193,650.663 L 668.193,664.189 L 677.207,664.189 L 677.207,679.309 L 691.519,681.272 L 691.519,700.517 L 693.455,700.517 L 693.455,729.945 L 695.395,729.945 L 695.405,737.749 L 705.705,737.679 L 704.969,629.584 L 752.445,629.26 L 753.281,752.079 C 754.147,752.079 755.011,752.079 755.868,752.079 L 755.868,707.465 L 760.391,700.692 L 760.391,690.827 L 768.964,690.827 L 768.964,685.247 L 802.447,685.247 L 802.447,690.827 L 811.016,690.827 L 811.016,700.684 L 815.544,707.465 Z M 294.715,814.436 L 294.569,760.796 C 292.627,762.499 290.667,764.184 288.688,765.853 L 288.82,814.436 Z M 268.637,778.188 L 268.603,765.265 C 272.717,761.797 276.752,758.253 280.705,754.631 C 280.669,754.664 280.632,754.697 280.596,754.732 L 280.635,768.828 C 276.701,772.015 272.701,775.133 268.637,778.188 Z M 300.841,814.436 L 300.681,755.32 C 301.096,754.941 301.508,754.56 301.917,754.181 C 300.128,755.833 298.321,757.471 296.499,759.092 L 296.649,814.436 Z M 308.672,814.436 L 308.492,747.959 C 306.503,749.885 304.492,751.791 302.46,753.677 C 302.512,753.631 302.561,753.585 302.611,753.539 L 302.776,814.436 Z M 282.564,767.255 L 282.525,752.952 C 282.476,752.997 282.427,753.044 282.375,753.089 C 286.515,749.249 290.564,745.324 294.516,741.308 L 294.559,757.005 C 290.636,760.496 286.636,763.912 282.564,767.255 Z M 314.799,814.436 L 314.601,741.896 C 313.219,743.299 311.825,744.692 310.421,746.075 L 310.607,814.436 Z M 445.893,743.261 C 445.236,742.604 444.583,741.945 443.932,741.284 L 443.927,743.261 Z M 441.992,743.261 L 442.003,739.311 C 442.009,739.317 442.016,739.325 442.024,739.333 C 442.016,739.325 442.009,739.316 442.003,739.309 L 442.003,739.311 C 441.901,739.207 441.801,739.103 441.701,738.999 L 441.701,743.261 Z M 416.024,738.732 L 420.095,738.732 C 418.729,737.309 417.376,735.877 416.036,734.433 Z M 322.629,814.436 L 322.409,733.711 C 320.475,735.803 318.513,737.873 316.531,739.921 L 316.732,814.436 Z M 409.316,743.261 L 414.077,743.261 L 414.107,732.339 C 412.319,730.384 410.555,728.409 408.812,726.415 C 408.992,726.624 409.175,726.832 409.36,727.041 Z M 328.756,814.436 L 328.519,726.932 C 328.703,726.721 328.885,726.513 329.067,726.304 C 327.508,728.088 325.932,729.856 324.339,731.608 L 324.564,814.436 Z M 296.489,755.273 L 296.445,739.335 C 300.74,734.903 304.921,730.364 308.981,725.717 C 308.8,725.927 308.619,726.135 308.433,726.344 L 308.481,743.971 C 304.571,747.821 300.573,751.588 296.489,755.273 Z M 441.443,738.732 C 437.343,734.484 433.349,730.137 429.467,725.693 C 429.648,725.903 429.829,726.111 430.015,726.32 L 429.981,738.732 Z M 372.407,758.047 L 373.873,758.047 L 373.873,724.229 L 372.315,724.229 Z M 370.475,758.047 L 370.383,724.229 L 367.496,724.229 L 367.404,758.047 Z M 363.713,758.047 L 365.471,758.047 L 365.563,724.229 L 363.713,724.229 Z M 401.869,811.548 L 403.181,811.548 L 403.181,743.261 L 407.381,743.261 L 407.432,724.827 C 405.637,722.748 403.867,720.648 402.121,718.527 Z M 336.587,814.436 L 336.324,717.723 C 334.395,720.081 332.435,722.412 330.447,724.716 L 330.691,814.436 Z M 395.173,811.545 L 399.936,811.547 L 400.195,716.163 C 398.591,714.179 397.008,712.175 395.449,710.153 Z M 342.712,814.436 L 342.429,710.043 C 341.053,711.825 339.66,713.593 338.251,715.347 L 338.52,814.436 Z M 310.411,742.056 L 310.361,724.129 C 314.484,719.355 318.48,714.464 322.344,709.455 L 322.399,729.484 C 318.505,733.769 314.508,737.96 310.411,742.056 Z M 428.047,738.732 L 428.087,724.105 C 423.964,719.331 419.968,714.44 416.104,709.432 L 416.048,730.216 C 418.677,733.097 421.355,735.936 424.079,738.732 Z M 387.912,811.543 L 393.24,811.545 L 393.521,707.632 C 391.721,705.255 389.952,702.852 388.213,700.423 Z M 344.647,814.436 L 348.523,814.436 L 348.523,811.764 L 350.253,811.764 L 350.253,759.896 L 350.396,759.896 L 350.232,699.519 C 348.309,702.217 346.351,704.885 344.357,707.523 Z M 352.207,714.849 L 352.987,714.849 L 352.987,695.587 C 352.711,695.985 352.433,696.384 352.157,696.783 Z M 386.029,759.896 L 386.12,759.896 L 386.288,697.704 C 385.721,696.896 385.159,696.087 384.6,695.275 L 384.6,714.849 L 386.029,714.849 Z M 324.327,727.34 L 324.272,706.935 C 328.424,701.449 332.419,695.825 336.249,690.057 L 336.312,713.187 C 332.439,718.016 328.443,722.732 324.327,727.34 Z M 414.119,728.085 L 414.176,706.911 C 410.024,701.425 406.029,695.801 402.199,690.033 L 402.133,714.004 C 406.005,718.808 410.003,723.501 414.119,728.085 Z M 372.288,714.395 L 374.081,714.395 L 374.081,686.08 L 372.212,686.08 Z M 370.356,714.395 L 370.279,686.08 L 367.6,686.08 L 367.523,714.395 Z M 363.505,714.395 L 365.589,714.395 L 365.667,686.08 L 363.505,686.08 Z M 365.693,676.248 L 365.695,675.715 C 365.589,675.892 365.484,676.069 365.379,676.248 Z M 370.252,676.248 L 370.241,672.493 C 369.793,671.715 369.348,670.935 368.908,670.152 C 368.487,670.896 368.063,671.64 367.637,672.381 L 367.627,676.248 Z M 338.239,710.764 L 338.175,687.127 C 342.371,680.664 346.364,674.025 350.144,667.205 L 350.219,694.577 C 346.376,700.107 342.38,705.501 338.239,710.764 Z M 400.207,711.592 L 400.273,687.103 C 396.077,680.64 392.084,674.001 388.304,667.181 L 388.227,695.5 C 392.069,700.996 396.065,706.359 400.207,711.592 Z M 375.181,675.339 C 375.2,675.371 375.22,675.404 375.24,675.437 L 375.252,658.379 C 374.204,660.42 373.137,662.447 372.053,664.457 C 372.087,664.395 372.121,664.333 372.153,664.272 L 372.169,670.184 C 373.159,671.913 374.164,673.631 375.181,675.339 Z M 352.144,691.775 C 352.425,691.36 352.705,690.944 352.987,690.529 L 352.987,677.499 L 354.032,677.499 L 354.032,659.984 C 353.351,661.285 352.663,662.58 351.968,663.869 C 352.001,663.807 352.036,663.745 352.068,663.684 Z M 386.301,692.717 L 386.38,663.661 C 385.423,661.885 384.48,660.099 383.553,658.3 L 383.553,677.499 L 384.6,677.499 L 384.6,690.207 C 385.163,691.045 385.731,691.883 386.301,692.717 Z M 362.347,675.811 C 363.484,673.912 364.605,672 365.709,670.073 L 365.725,664.383 C 364.573,662.245 363.443,660.092 362.335,657.921 Z M 368.909,664.356 C 370.661,661.149 372.367,657.905 374.025,654.62 L 363.797,654.62 C 365.453,657.905 367.157,661.151 368.909,664.356 Z "/>
		<path id="dp_path004" fill="black" fill-rule="evenodd" stroke="none" stroke-width="0" d="M 560.816,813.316 L 560.031,813.329 L 558.528,815.584 L 558.528,817.924 L 558.369,817.924 L 545.748,804.791 L 545.751,804.784 L 545.745,804.789 L 545.741,804.784 L 545.743,804.791 L 533.121,817.924 L 532.963,817.924 L 532.963,815.584 L 531.46,813.329 L 530.675,813.316 L 528.979,815.584 L 528.979,819.448 L 527.649,819.448 L 527.649,787.067 L 527.649,786.113 L 526.633,785.099 L 523.999,785.099 L 522.983,786.113 L 522.983,787.067 L 507.043,787.067 L 504.729,789.377 L 504.729,796.291 L 503.487,796.291 L 503.487,826.251 L 501.707,826.251 L 501.707,844.235 L 492.965,844.235 L 492.987,774.481 L 488.149,774.481 L 488.023,757.623 L 485.765,757.224 L 480.783,733.712 L 480.119,733.703 L 480.119,726.841 L 478.597,726.841 L 478.597,714.352 C 487.809,713.849 481.987,718.425 492.789,714.916 L 492.789,706.519 C 483.568,709.807 486.984,704.497 478.377,705.905 L 476.263,705.905 L 476.263,726.841 L 474.741,726.841 L 474.741,733.793 L 473.715,733.793 L 469.041,757.395 L 466.724,757.684 L 466.583,774.693 L 461.873,774.704 L 461.873,844.235 L 451.424,844.235 L 451.424,800.089 L 420.013,800.089 L 420.013,846.827 L 414.469,846.827 L 414.537,811.552 L 386.928,811.543 L 386.264,878.092 L 380.809,878.092 C 378.976,880.115 375.604,889.093 370.601,893.3 L 347.913,893.3 C 349.196,891.921 349.967,890.315 351.081,888.505 C 348.049,887.851 343.932,887.624 340.848,887.781 C 344.896,886.523 345.684,886.292 348.484,884.337 C 351.228,871.008 347.288,858.396 335.453,846.131 C 336.26,862.077 335.144,881.861 332.396,887.604 L 330.689,887.604 C 332.9,880.189 334.951,862.013 334.583,846.265 C 327.397,861.82 318.345,874.975 311.675,883.157 C 315.728,886.156 320.633,887.416 322.935,887.781 C 321.213,887.788 319.751,887.721 314.435,888.725 C 314.905,890.249 315.672,891.775 317.409,893.3 L 215.388,893.3 C 216.007,892.248 216.6,891.125 217.3,889.936 C 213.479,889.073 208.288,888.775 204.401,888.983 C 209.504,887.324 210.497,887.019 214.027,884.445 C 217.484,866.88 212.517,850.26 197.601,834.097 C 198.617,855.111 197.212,881.181 193.748,888.748 L 191.596,888.748 C 194.384,878.979 196.968,855.025 196.503,834.275 C 187.448,854.772 176.037,872.107 167.629,882.889 C 172.739,886.84 178.923,888.5 181.823,888.983 C 179.653,888.991 177.809,888.903 171.108,890.227 C 171.411,891.251 171.811,892.275 172.421,893.3 L 132.6,893.3 L 132.6,944.88 L 1024.57,944.88 L 1024.57,893.3 L 1018.64,893.3 L 1018.64,842.743 L 991.287,842.743 L 991.287,851.703 L 979.301,851.703 L 979.301,865.559 L 974.461,862.483 L 974.461,836.667 L 965.403,827.495 L 957.752,835.248 L 957.752,825.496 L 948.693,816.324 L 940.26,824.871 L 940.26,814.693 L 931.097,805.416 L 921.944,814.693 L 921.944,816.328 L 921.173,816.328 L 921.173,807.316 C 921.655,807.019 921.976,806.491 921.976,805.885 C 921.976,805.28 921.655,804.751 921.173,804.456 L 921.173,789.04 C 921.655,788.755 921.976,788.247 921.976,787.665 C 921.976,786.772 921.22,786.049 920.287,786.049 C 919.661,786.049 919.115,786.373 918.824,786.856 L 918.048,786.856 L 918.047,777.46 L 920.564,777.42 C 921.04,777.105 921.036,775.844 920.555,775.568 L 919.925,775.571 L 917.251,775.511 L 916.645,775.511 L 908.576,772.703 L 908.612,767.723 C 909.665,767.987 910.207,768.165 911.144,768.559 L 911.888,767.26 C 907.004,765.497 900.439,763.973 895.192,763.972 S 883.048,765.46 878.061,767.26 L 878.805,768.557 C 879.743,768.164 880.284,767.985 881.337,767.721 L 881.373,772.703 L 873.304,775.509 L 872.699,775.509 L 870.024,775.569 L 869.395,775.567 C 868.913,775.843 868.909,777.104 869.385,777.42 L 871.903,777.459 L 871.901,786.855 L 871.125,786.855 C 870.835,786.372 870.288,786.048 869.663,786.048 C 868.729,786.048 867.973,786.771 867.973,787.664 C 867.973,788.245 868.295,788.753 868.776,789.039 L 868.776,804.455 C 868.295,804.751 867.973,805.279 867.973,805.884 C 867.973,806.489 868.295,807.019 868.776,807.315 L 868.776,816.328 L 867.66,816.328 L 867.66,818.956 C 861.939,815.292 856.217,811.628 850.497,807.965 L 850.497,760.097 L 844.105,760.097 L 844.105,754.56 L 831.044,754.56 L 831.044,760.097 L 808.648,760.097 L 808.648,795.009 L 801.609,795.009 L 801.609,789.155 L 796.469,789.155 L 795.193,741.195 L 794.56,741.195 L 794.56,724.652 L 793.232,724.652 L 793.232,718.047 L 786.225,718.047 L 779.625,718.047 L 779.625,724.652 L 778.297,724.652 L 778.297,741.195 L 777.796,741.195 L 776.612,789.155 L 771.515,789.155 L 771.515,806.196 L 768.095,806.196 L 768.095,758.48 L 763.903,758.48 L 760.44,752.079 C 755.095,752.079 749.352,752.079 743.759,752.079 L 736.632,752.079 L 733.169,758.48 L 728.973,758.48 L 728.973,826.989 L 727.159,826.989 L 727.159,796.424 L 719.313,796.424 L 719.313,761.165 L 716.793,761.165 L 716.793,771.329 L 716.025,771.191 L 715.684,769.229 L 713.669,768.867 C 713.609,764.695 713.163,759.791 709.64,754.324 C 707.729,751.356 703.011,746.604 697.505,745.461 L 697.505,741.352 L 695.411,741.352 L 695.395,729.945 L 693.455,729.945 L 693.455,700.517 L 690.288,700.517 L 690.288,729.945 L 688.347,729.945 L 688.331,741.352 L 686.236,741.352 L 686.236,745.461 C 680.731,746.604 676.012,751.356 674.101,754.324 C 670.579,759.791 670.132,764.695 670.072,768.867 L 668.057,769.229 L 667.716,771.191 L 666.948,771.329 L 666.948,761.165 L 664.428,761.165 L 664.428,796.424 L 656.583,796.424 L 656.583,830.361 L 638.101,830.361 L 638.101,826.175 L 638.959,826.175 L 642.288,822.695 L 642.288,821.149 L 638.101,821.149 L 638.101,807.172 C 638.849,805.28 640.136,804.107 642.061,803.589 L 643.033,803.544 L 643.027,801.728 L 640.287,801.728 C 640.221,800.315 639.499,798.88 638.639,797.745 C 639.332,797.268 639.784,796.497 639.784,795.628 C 639.784,794.549 639.091,793.624 638.101,793.223 L 638.101,792.732 C 638.179,792.435 638.22,792.119 638.22,791.792 C 638.22,789.993 636.971,788.536 635.429,788.536 C 635.145,788.536 634.873,788.585 634.615,788.677 C 634.267,787.481 633.501,786.327 632.381,785.664 L 630.649,786.071 C 629.861,786.304 628.473,787.224 627.799,788.045 L 627.799,757.041 L 627.139,757.041 L 627.139,748.584 L 627.799,748.584 L 627.761,745.865 C 627.653,744.44 627.96,743.368 629.341,742.771 L 630.535,742.771 L 630.973,741.559 L 632.241,740.392 L 632.241,740.391 C 632.293,740.353 632.341,740.311 632.384,740.26 C 632.385,740.255 632.388,740.253 632.391,740.251 C 632.515,740.111 632.592,739.911 632.592,739.688 C 632.592,739.397 632.459,739.144 632.264,739.013 L 632.264,739.012 L 630.996,737.845 L 630.064,736.931 L 626.755,736.931 C 625.037,735.728 623.424,733.653 623.335,730.869 L 623.335,728.321 L 622.531,726.724 L 622.531,725.541 C 622.971,724.628 623.693,724.111 624.372,723.808 C 627.719,719.172 628.619,714.135 624.372,708.175 L 624.973,706.551 L 627.332,705.204 L 627.332,703.924 L 622.755,699.397 L 621.824,699.397 L 621.824,690.149 C 622.324,689.664 622.636,688.987 622.636,688.239 C 622.636,686.764 621.432,685.569 619.945,685.569 C 618.459,685.569 617.255,686.764 617.255,688.239 C 617.255,688.985 617.563,689.66 618.063,690.145 L 618.063,699.397 L 617.411,699.397 L 612.833,703.924 L 612.833,705.204 L 615.192,706.551 L 615.793,708.175 C 611.547,714.135 612.447,719.172 615.793,723.808 C 616.472,724.111 617.195,724.628 617.635,725.541 L 617.635,726.724 L 616.831,728.321 L 616.831,730.869 C 616.74,733.653 615.128,735.728 613.411,736.931 L 610.101,736.931 L 609.169,737.845 L 607.901,739.012 L 607.901,739.013 C 607.707,739.144 607.573,739.397 607.573,739.688 C 607.573,739.911 607.651,740.111 607.775,740.251 C 607.777,740.253 607.78,740.255 607.781,740.26 C 607.824,740.311 607.872,740.353 607.924,740.391 L 607.924,740.392 L 609.192,741.559 L 609.631,742.771 L 610.824,742.771 C 612.205,743.368 612.512,744.44 612.404,745.865 L 612.367,748.584 L 613.027,748.584 L 613.027,757.041 L 612.367,757.041 L 612.367,788.045 C 611.692,787.224 610.304,786.304 609.516,786.071 L 607.784,785.664 C 606.664,786.327 605.899,787.481 605.551,788.677 C 605.292,788.585 605.02,788.536 604.736,788.536 C 603.195,788.536 601.945,789.993 601.945,791.792 C 601.945,792.119 601.987,792.435 602.064,792.732 L 602.064,793.223 C 601.075,793.624 600.381,794.549 600.381,795.628 C 600.381,796.497 600.833,797.268 601.527,797.745 C 600.667,798.88 599.944,800.315 599.879,801.728 L 597.139,801.728 L 597.132,803.544 L 598.104,803.589 C 600.029,804.107 601.316,805.28 602.064,807.172 L 602.064,821.149 L 597.877,821.149 L 597.877,822.695 L 601.207,826.175 L 602.064,826.175 L 602.064,836.165 C 600.481,840.724 596.021,841.444 593.749,842.023 L 593.755,842.024 L 593.749,842.024 L 593.749,858.752 L 589.784,858.752 L 589.784,826.251 L 588.004,826.251 L 588.004,796.291 L 586.195,796.291 L 586.195,789.377 L 583.881,787.067 L 568.509,787.067 L 568.509,786.113 L 567.493,785.099 L 564.857,785.099 L 563.841,786.113 L 563.841,787.067 L 563.841,819.448 L 562.513,819.448 L 562.513,815.584 Z M 876.719,824.756 C 877.705,825.388 878.692,826.02 879.68,826.652 C 879.831,826.513 879.983,826.376 880.131,826.237 L 880.131,824.756 Z M 921.944,820.568 L 921.944,829.932 C 918.419,829.932 914.893,829.932 911.369,829.932 C 911.58,829.673 911.716,829.38 911.728,829.075 C 911.772,827.825 910.709,827.083 909.819,826.239 L 909.819,824.757 L 916.195,824.757 L 916.195,820.568 Z M 870.176,820.567 C 871.368,821.329 872.561,822.093 873.755,822.859 L 873.755,820.567 Z M 919.035,807.016 C 919.141,807.132 919.265,807.235 919.403,807.317 L 919.403,816.328 L 918.051,816.328 L 918.049,806.693 L 918.804,806.693 C 918.867,806.809 918.945,806.917 919.035,807.016 Z M 870.915,807.015 C 870.808,807.131 870.684,807.233 870.547,807.317 L 870.547,816.328 L 871.899,816.328 L 871.9,806.692 L 871.145,806.692 C 871.083,806.808 871.004,806.916 870.915,807.015 Z M 918.82,788.471 C 918.961,788.704 919.161,788.901 919.403,789.043 L 919.403,804.453 C 919.151,804.605 918.944,804.821 918.804,805.079 L 918.049,805.079 L 918.048,788.471 Z M 871.129,788.469 C 870.988,788.703 870.788,788.9 870.547,789.041 L 870.547,804.452 C 870.799,804.604 871.005,804.82 871.145,805.077 L 871.9,805.077 L 871.901,788.469 Z M 914.163,798.257 L 902.989,798.257 L 903.112,780.827 C 907.072,779.752 910.464,779.793 914.163,780.827 Z M 875.787,798.256 L 886.96,798.256 L 886.837,780.825 C 882.877,779.751 879.485,779.792 875.787,780.825 Z M 889.395,779.523 L 889.395,798.256 L 895.172,798.256 L 895.172,798.257 L 900.555,798.257 L 900.555,779.523 C 898.624,778.964 896.777,778.684 894.889,778.704 C 893.061,778.699 891.267,778.979 889.395,779.523 Z M 790.783,732.501 L 790.783,739.537 L 787.773,739.537 L 787.773,732.501 L 787.777,732.501 C 787.777,732.477 787.776,732.453 787.776,732.429 C 787.776,731.635 788.449,730.989 789.279,730.989 C 790.108,730.989 790.781,731.635 790.781,732.429 C 790.781,732.453 790.781,732.477 790.779,732.501 Z M 782.075,732.501 L 782.075,739.537 L 785.084,739.537 L 785.084,732.501 L 785.08,732.501 C 785.08,732.477 785.081,732.453 785.081,732.429 C 785.081,731.635 784.408,730.989 783.579,730.989 C 782.749,730.989 782.076,731.635 782.076,732.429 C 782.076,732.453 782.076,732.477 782.079,732.501 Z M 787.776,724.652 L 789.92,724.652 L 789.92,721.451 C 789.888,720.905 789.421,720.473 788.848,720.473 C 788.277,720.473 787.811,720.905 787.777,721.451 L 787.776,721.451 Z M 785.081,724.652 L 782.937,724.652 L 782.937,721.451 C 782.969,720.905 783.436,720.473 784.008,720.473 C 784.58,720.473 785.047,720.905 785.08,721.451 L 785.081,721.451 Z "/>
	</g>
</svg>