<?xml version="1.0" encoding="UTF-8"?><svg id="a" xmlns="http://www.w3.org/2000/svg" viewBox="0 0 1953 654.03"><defs><style>.b{fill:#fff;stroke:#dedede;}.b,.c{stroke-miterlimit:10;stroke-width:6px;}.d{fill:#4285f4;}.e{fill:#fbbc05;}.f{fill:#34a853;}.g{fill:#757575;}.c{fill:none;stroke:#707070;}.h{fill:#ea4335;}</style></defs><path id="backGround-Color" class="b" d="M205,219s-97,6-97,108,97,106.9,97,106.9H1745s100-.9,100-107.9-100-107-100-107H205Z"/><g><path id="L" class="g" d="M315.61,300.26h6.7v46.27h22.17v5.62h-28.87v-51.9Z"/><path id="E" class="g" d="M354.42,334.76c.15,9.16,6.01,12.94,12.78,12.94,4.85,0,7.78-.85,10.32-1.92l1.15,4.85c-2.39,1.08-6.47,2.31-12.4,2.31-11.47,0-18.33-7.55-18.33-18.79s6.62-20.1,17.48-20.1c12.17,0,15.4,10.7,15.4,17.55,0,1.39-.15,2.46-.23,3.16h-26.18Zm19.86-4.85c.08-4.31-1.77-11.01-9.39-11.01-6.85,0-9.86,6.31-10.39,11.01h19.79Z"/><path id="T" class="g" d="M397.39,304.19v10.7h9.7v5.16h-9.7v20.1c0,4.62,1.31,7.24,5.08,7.24,1.77,0,3.08-.23,3.93-.46l.31,5.08c-1.31,.54-3.39,.92-6.01,.92-3.16,0-5.7-1-7.31-2.85-1.92-2-2.62-5.31-2.62-9.7v-20.33h-5.77v-5.16h5.77v-8.93l6.62-1.77Z"/><path id="U" class="g" d="M462.22,341.99c0,3.85,.08,7.24,.31,10.16h-6.01l-.39-6.08h-.15c-1.77,3-5.7,6.93-12.32,6.93-5.85,0-12.86-3.23-12.86-16.32v-21.79h6.78v20.64c0,7.08,2.16,11.86,8.32,11.86,4.54,0,7.7-3.16,8.93-6.16,.38-1,.62-2.23,.62-3.46v-22.87h6.78v27.1Z"/><path id="S" class="g" d="M472.54,345.23c2,1.31,5.54,2.69,8.93,2.69,4.93,0,7.24-2.46,7.24-5.54,0-3.23-1.92-5-6.93-6.85-6.7-2.39-9.86-6.08-9.86-10.55,0-6.01,4.85-10.93,12.86-10.93,3.77,0,7.08,1.08,9.16,2.31l-1.69,4.93c-1.46-.92-4.16-2.16-7.62-2.16-4,0-6.24,2.31-6.24,5.08,0,3.08,2.23,4.47,7.08,6.31,6.47,2.46,9.78,5.7,9.78,11.24,0,6.54-5.08,11.16-13.94,11.16-4.08,0-7.85-1-10.47-2.54l1.69-5.16Z"/><path id="C" class="g" d="M546.84,350.77c-1.77,.92-5.7,2.16-10.7,2.16-11.24,0-18.56-7.62-18.56-19.02s7.85-19.79,20.02-19.79c4,0,7.55,1,9.39,1.93l-1.54,5.24c-1.62-.92-4.16-1.77-7.85-1.77-8.55,0-13.17,6.31-13.17,14.09,0,8.62,5.54,13.94,12.94,13.94,3.85,0,6.39-1,8.32-1.85l1.15,5.08Z"/><path id="O" class="g" d="M588.04,333.22c0,13.78-9.55,19.79-18.56,19.79-10.09,0-17.86-7.39-17.86-19.17,0-12.47,8.16-19.79,18.48-19.79s17.94,7.78,17.94,19.17Zm-29.57,.38c0,8.16,4.7,14.32,11.32,14.32s11.32-6.08,11.32-14.48c0-6.31-3.16-14.32-11.16-14.32s-11.47,7.39-11.47,14.48Z"/><path id="N" class="g" d="M596.58,324.98c0-3.85-.08-7.01-.31-10.09h6.01l.38,6.16h.15c1.85-3.54,6.16-7.01,12.32-7.01,5.16,0,13.17,3.08,13.17,15.86v22.25h-6.78v-21.48c0-6.01-2.23-11.01-8.62-11.01-4.47,0-7.93,3.16-9.09,6.93-.31,.85-.46,2-.46,3.16v22.41h-6.78v-27.18Z"/><path id="N_2" class="g" d="M639.32,324.98c0-3.85-.08-7.01-.31-10.09h6.01l.39,6.16h.15c1.85-3.54,6.16-7.01,12.32-7.01,5.16,0,13.17,3.08,13.17,15.86v22.25h-6.78v-21.48c0-6.01-2.23-11.01-8.62-11.01-4.47,0-7.93,3.16-9.09,6.93-.31,.85-.46,2-.46,3.16v22.41h-6.78v-27.18Z"/><path id="E_2" class="g" d="M685.83,334.76c.15,9.16,6.01,12.94,12.78,12.94,4.85,0,7.78-.85,10.32-1.92l1.15,4.85c-2.39,1.08-6.47,2.31-12.4,2.31-11.47,0-18.33-7.55-18.33-18.79s6.62-20.1,17.48-20.1c12.17,0,15.4,10.7,15.4,17.55,0,1.39-.15,2.46-.23,3.16h-26.18Zm19.86-4.85c.08-4.31-1.77-11.01-9.39-11.01-6.85,0-9.86,6.31-10.39,11.01h19.79Z"/><path id="C" class="g" d="M747.19,350.77c-1.77,.92-5.7,2.16-10.7,2.16-11.24,0-18.56-7.62-18.56-19.02s7.85-19.79,20.02-19.79c4,0,7.55,1,9.39,1.93l-1.54,5.24c-1.62-.92-4.16-1.77-7.85-1.77-8.55,0-13.17,6.31-13.17,14.09,0,8.62,5.54,13.94,12.94,13.94,3.85,0,6.39-1,8.32-1.85l1.15,5.08Z"/><path id="T_2" class="g" d="M764.29,304.19v10.7h9.7v5.16h-9.7v20.1c0,4.62,1.31,7.24,5.08,7.24,1.77,0,3.08-.23,3.93-.46l.31,5.08c-1.31,.54-3.39,.92-6.01,.92-3.16,0-5.7-1-7.31-2.85-1.92-2-2.62-5.31-2.62-9.7v-20.33h-5.77v-5.16h5.77v-8.93l6.62-1.77Z"/><path id="Y" class="g" d="M800.4,314.89l8.16,22.02c.85,2.46,1.77,5.39,2.39,7.62h.15c.69-2.23,1.46-5.08,2.39-7.78l7.39-21.87h7.16l-10.16,26.56c-4.85,12.78-8.16,19.33-12.78,23.33-3.31,2.93-6.62,4.08-8.32,4.39l-1.69-5.7c1.69-.54,3.93-1.62,5.93-3.31,1.85-1.46,4.16-4.08,5.7-7.55,.31-.69,.54-1.23,.54-1.62s-.15-.92-.46-1.77l-13.78-34.34h7.39Z"/><path id="O_2" class="g" d="M867.16,333.22c0,13.78-9.55,19.79-18.56,19.79-10.09,0-17.86-7.39-17.86-19.17,0-12.47,8.16-19.79,18.48-19.79s17.94,7.78,17.94,19.17Zm-29.57,.38c0,8.16,4.7,14.32,11.32,14.32s11.32-6.08,11.32-14.48c0-6.31-3.16-14.32-11.16-14.32s-11.47,7.39-11.47,14.48Z"/><path id="U_2" class="g" d="M906.89,341.99c0,3.85,.08,7.24,.31,10.16h-6.01l-.39-6.08h-.15c-1.77,3-5.7,6.93-12.32,6.93-5.85,0-12.86-3.23-12.86-16.32v-21.79h6.78v20.64c0,7.08,2.16,11.86,8.32,11.86,4.54,0,7.7-3.16,8.93-6.16,.38-1,.62-2.23,.62-3.46v-22.87h6.78v27.1Z"/><path id="T_3" class="g" d="M942.62,304.19v10.7h9.7v5.16h-9.7v20.1c0,4.62,1.31,7.24,5.08,7.24,1.77,0,3.08-.23,3.93-.46l.31,5.08c-1.31,.54-3.39,.92-6.01,.92-3.16,0-5.7-1-7.31-2.85-1.92-2-2.62-5.31-2.62-9.7v-20.33h-5.77v-5.16h5.77v-8.93l6.62-1.77Z"/><path id="O_3" class="g" d="M993.2,333.22c0,13.78-9.55,19.79-18.56,19.79-10.09,0-17.86-7.39-17.86-19.17,0-12.47,8.16-19.79,18.48-19.79s17.94,7.78,17.94,19.17Zm-29.57,.38c0,8.16,4.7,14.32,11.32,14.32s11.32-6.08,11.32-14.48c0-6.31-3.16-14.32-11.16-14.32s-11.47,7.39-11.47,14.48Z"/><path id="N_3" class="g" d="M1018.07,324.98c0-3.85-.08-7.01-.31-10.09h6.01l.38,6.16h.15c1.85-3.54,6.16-7.01,12.32-7.01,5.16,0,13.17,3.08,13.17,15.86v22.25h-6.78v-21.48c0-6.01-2.23-11.01-8.62-11.01-4.47,0-7.93,3.16-9.09,6.93-.31,.85-.46,2-.46,3.16v22.41h-6.78v-27.18Z"/><path id="E_3" class="g" d="M1064.58,334.76c.15,9.16,6.01,12.94,12.78,12.94,4.85,0,7.78-.85,10.32-1.92l1.16,4.85c-2.39,1.08-6.47,2.31-12.4,2.31-11.47,0-18.33-7.55-18.33-18.79s6.62-20.1,17.48-20.1c12.17,0,15.4,10.7,15.4,17.55,0,1.39-.15,2.46-.23,3.16h-26.18Zm19.87-4.85c.08-4.31-1.77-11.01-9.39-11.01-6.85,0-9.86,6.31-10.39,11.01h19.79Z"/><path id="W" class="g" d="M1102.08,314.89l4.93,18.94c1.08,4.16,2.08,8.01,2.77,11.86h.23c.85-3.77,2.08-7.78,3.31-11.78l6.08-19.02h5.7l5.78,18.63c1.39,4.47,2.46,8.39,3.31,12.17h.23c.62-3.77,1.62-7.7,2.85-12.09l5.31-18.71h6.7l-12.01,37.27h-6.16l-5.7-17.79c-1.31-4.16-2.39-7.85-3.31-12.24h-.15c-.92,4.47-2.08,8.32-3.39,12.32l-6.01,17.71h-6.16l-11.24-37.27h6.93Z"/><path id="C_2" class="g" d="M1198.94,350.77c-1.77,.92-5.7,2.16-10.7,2.16-11.24,0-18.56-7.62-18.56-19.02s7.85-19.79,20.02-19.79c4,0,7.55,1,9.39,1.93l-1.54,5.24c-1.62-.92-4.16-1.77-7.85-1.77-8.55,0-13.17,6.31-13.17,14.09,0,8.62,5.54,13.94,12.94,13.94,3.85,0,6.39-1,8.32-1.85l1.16,5.08Z"/><path id="U_3" class="g" d="M1238.06,341.99c0,3.85,.08,7.24,.31,10.16h-6.01l-.38-6.08h-.15c-1.77,3-5.7,6.93-12.32,6.93-5.85,0-12.86-3.23-12.86-16.32v-21.79h6.78v20.64c0,7.08,2.16,11.86,8.32,11.86,4.54,0,7.7-3.16,8.93-6.16,.39-1,.62-2.23,.62-3.46v-22.87h6.78v27.1Z"/><path id="S_2" class="g" d="M1248.38,345.23c2,1.31,5.54,2.69,8.93,2.69,4.93,0,7.24-2.46,7.24-5.54,0-3.23-1.92-5-6.93-6.85-6.7-2.39-9.86-6.08-9.86-10.55,0-6.01,4.85-10.93,12.86-10.93,3.77,0,7.08,1.08,9.16,2.31l-1.69,4.93c-1.46-.92-4.16-2.16-7.62-2.16-4,0-6.24,2.31-6.24,5.08,0,3.08,2.23,4.47,7.08,6.31,6.47,2.46,9.78,5.7,9.78,11.24,0,6.54-5.08,11.16-13.94,11.16-4.08,0-7.85-1-10.47-2.54l1.69-5.16Z"/><path id="T_4" class="g" d="M1287.96,304.19v10.7h9.7v5.16h-9.7v20.1c0,4.62,1.31,7.24,5.08,7.24,1.77,0,3.08-.23,3.93-.46l.31,5.08c-1.31,.54-3.39,.92-6.01,.92-3.16,0-5.7-1-7.31-2.85-1.92-2-2.62-5.31-2.62-9.7v-20.33h-5.77v-5.16h5.77v-8.93l6.62-1.77Z"/><path id="O_4" class="g" d="M1338.54,333.22c0,13.78-9.55,19.79-18.56,19.79-10.09,0-17.86-7.39-17.86-19.17,0-12.47,8.16-19.79,18.48-19.79s17.94,7.78,17.94,19.17Zm-29.57,.38c0,8.16,4.7,14.32,11.32,14.32s11.32-6.08,11.32-14.48c0-6.31-3.16-14.32-11.16-14.32s-11.47,7.39-11.47,14.48Z"/><path id="M" class="g" d="M1347.09,324.98c0-3.85-.08-7.01-.31-10.09h5.93l.31,6.01h.23c2.08-3.54,5.54-6.85,11.7-6.85,5.08,0,8.93,3.08,10.55,7.47h.15c1.15-2.08,2.62-3.7,4.16-4.85,2.23-1.69,4.7-2.62,8.24-2.62,4.93,0,12.24,3.23,12.24,16.17v21.94h-6.62v-21.1c0-7.16-2.62-11.47-8.08-11.47-3.85,0-6.85,2.85-8.01,6.16-.31,.92-.54,2.16-.54,3.39v23.02h-6.62v-22.33c0-5.93-2.62-10.24-7.78-10.24-4.23,0-7.31,3.39-8.39,6.78-.38,1-.54,2.16-.54,3.31v22.48h-6.62v-27.18Z"/><path id="E_4" class="g" d="M1415.08,334.76c.15,9.16,6.01,12.94,12.78,12.94,4.85,0,7.78-.85,10.32-1.92l1.16,4.85c-2.39,1.08-6.47,2.31-12.4,2.31-11.47,0-18.33-7.55-18.33-18.79s6.62-20.1,17.48-20.1c12.17,0,15.4,10.7,15.4,17.55,0,1.39-.15,2.46-.23,3.16h-26.18Zm19.87-4.85c.08-4.31-1.77-11.01-9.39-11.01-6.85,0-9.86,6.31-10.39,11.01h19.79Z"/><path id="R" class="g" d="M1449.89,326.52c0-4.39-.08-8.16-.31-11.63h5.93l.23,7.31h.31c1.69-5,5.77-8.16,10.32-8.16,.77,0,1.31,.08,1.92,.23v6.39c-.69-.15-1.39-.23-2.31-.23-4.77,0-8.16,3.62-9.09,8.7-.15,.92-.31,2-.31,3.16v19.86h-6.7v-25.64Z"/><path id="S" class="g" d="M1474.14,345.23c2,1.31,5.54,2.69,8.93,2.69,4.93,0,7.24-2.46,7.24-5.54,0-3.23-1.92-5-6.93-6.85-6.7-2.39-9.86-6.08-9.86-10.55,0-6.01,4.85-10.93,12.86-10.93,3.77,0,7.08,1.08,9.16,2.31l-1.69,4.93c-1.46-.92-4.16-2.16-7.62-2.16-4,0-6.24,2.31-6.24,5.08,0,3.08,2.23,4.47,7.08,6.31,6.47,2.46,9.78,5.7,9.78,11.24,0,6.54-5.08,11.16-13.94,11.16-4.08,0-7.85-1-10.47-2.54l1.69-5.16Z"/></g><g transform="matrix(1, 0, 0, 1, 27.009001, -39.238998)"><path id="blue_GoogleLogo" class="d" d="M240.33,369.07c0-2.9-.26-5.66-.7-8.34h-41.51v16.57h23.77c-1.07,5.44-4.19,10.03-8.82,13.15v11.02h14.18c8.3-7.68,13.08-18.99,13.08-32.4Z"/><path id="green_GoogleLogo" class="f" d="M198.12,412.16c11.9,0,21.86-3.97,29.13-10.69l-14.18-11.02c-3.97,2.64-9,4.26-14.95,4.26-11.5,0-21.23-7.75-24.72-18.22h-14.62v11.35c7.24,14.4,22.11,24.32,39.34,24.32Z"/><path id="yellow_GoogleLogo" class="e" d="M173.4,376.49c-.92-2.64-1.4-5.47-1.4-8.41s.51-5.77,1.4-8.41v-11.35h-14.62c-3.01,5.95-4.74,12.64-4.74,19.76s1.73,13.81,4.74,19.76l14.62-11.35Z"/><path id="red_GoogleLogo" class="h" d="M198.12,341.45c6.5,0,12.31,2.24,16.9,6.61l12.56-12.56c-7.6-7.13-17.56-11.5-29.46-11.5-17.23,0-32.1,9.92-39.34,24.32l14.62,11.35c3.49-10.47,13.22-18.22,24.72-18.22Z"/></g><line id="line" class="c" x1="310" y1="264" x2="310" y2="389"/><g><path id="blue_GoogleMic" class="d" d="M1746.58,339.42c-7.32,0-13.25-5.93-13.25-13.25v-30.93c0-7.32,5.93-13.25,13.25-13.25s13.25,5.93,13.25,13.25v30.93c0,7.32-5.93,13.25-13.25,13.25Z"/><rect class="f" x="1742.18" y="354.48" width="8.84" height="16.2"/><path id="green_GoogleMic" class="h" d="M1768.71,326.34c-.02,12.19-9.94,22.11-22.13,22.11-6.11,0-11.67-2.5-15.68-6.53l-6.18,6.18c5.59,5.59,13.31,9.07,21.86,9.07,17.03,0,30.84-13.81,30.86-30.84h-8.73v.02Z"/><path id="red_GoogleMic" class="e" d="M1730.9,341.92c-3.97-3.99-6.45-9.5-6.45-15.58h-8.73c0,8.49,3.45,16.18,9.01,21.75l6.18-6.18Z"/></g></svg>